<svg width="72" height="73" viewBox="0 0 72 73" fill="none" xmlns="http://www.w3.org/2000/svg">
<rect y="0.48584" width="72" height="72" rx="24" fill="white"/>
<path d="M22.023 42.4033L15.9414 52.9453L23.0395 52.5685L26.2643 58.9042L31.8903 49.1509C27.8592 48.1081 24.3978 45.6807 22.023 42.4033Z" fill="#28A766"/>
<path d="M50.6945 42.3496C48.3372 45.6358 44.8758 48.0719 40.8535 49.1323L46.497 58.9031L49.7218 52.5674L56.8199 52.9442L50.6945 42.3496Z" fill="#34C37A"/>
<circle cx="35.373" cy="32.1701" r="18.5815" fill="#FFC670"/>
<ellipse cx="35.5287" cy="32.1639" rx="14.39" ry="14.5711" fill="#FFF1C0"/>
<path d="M44.4434 30.7573C44.8438 30.3658 44.6214 29.6807 44.0697 29.6007L38.9359 28.8533C38.7134 28.8177 38.5266 28.6842 38.4287 28.4796L36.1332 23.8262C35.884 23.319 35.1633 23.319 34.9142 23.8262L32.6275 28.4796C32.5297 28.6753 32.3339 28.8177 32.1204 28.8533L26.9865 29.6007C26.4348 29.6807 26.2124 30.3658 26.6128 30.7573L30.3231 34.3786C30.4832 34.5388 30.5544 34.7612 30.5188 34.9748L29.6469 40.0819C29.549 40.6336 30.1362 41.0607 30.6345 40.7937L35.2256 38.3825C35.4213 38.2757 35.6616 38.2757 35.8573 38.3825L40.4484 40.7937C40.9467 41.0518 41.5251 40.6336 41.4361 40.0819L40.5552 34.9748C40.5196 34.7523 40.5908 34.5299 40.751 34.3786L44.4434 30.7573Z" fill="#58DA98"/>
<path d="M14.7226 11.3222C14.7894 11.0266 15.2106 11.0266 15.2774 11.3222L15.5968 12.7351C15.9164 14.1489 16.8978 15.322 18.2329 15.8862C18.416 15.9636 18.416 16.2231 18.2329 16.3005C16.8978 16.8647 15.9164 18.0378 15.5968 19.4516L15.2774 20.8645C15.2106 21.1601 14.7894 21.1601 14.7226 20.8645L14.4032 19.4516C14.0836 18.0378 13.1022 16.8647 11.7671 16.3005C11.584 16.2231 11.584 15.9636 11.7671 15.8862C13.1022 15.322 14.0836 14.1489 14.4032 12.7351L14.7226 11.3222Z" fill="#58DA98"/>
<path d="M59.7226 52.3222C59.7894 52.0266 60.2106 52.0266 60.2774 52.3222L60.5968 53.7351C60.9164 55.1489 61.8978 56.322 63.2329 56.8862C63.416 56.9636 63.416 57.2231 63.2329 57.3005C61.8978 57.8647 60.9164 59.0378 60.5968 60.4516L60.2774 61.8645C60.2106 62.1601 59.7894 62.1601 59.7226 61.8645L59.4032 60.4516C59.0836 59.0378 58.1022 57.8647 56.7671 57.3005C56.584 57.2231 56.584 56.9636 56.7671 56.8862C58.1022 56.322 59.0836 55.1489 59.4032 53.7351L59.7226 52.3222Z" fill="#58DA98"/>
</svg>
