<svg width="72" height="73" viewBox="0 0 72 73" fill="none" xmlns="http://www.w3.org/2000/svg">
<rect y="0.48584" width="72" height="72" rx="24" fill="white"/>
<path d="M58.6933 55.9589C58.7601 55.6633 59.1813 55.6633 59.2481 55.9589L59.5675 57.3719C59.8871 58.7856 60.8685 59.9587 62.2036 60.5229C62.3867 60.6003 62.3867 60.8598 62.2036 60.9372C60.8685 61.5014 59.8871 62.6745 59.5675 64.0883L59.2481 65.5012C59.1813 65.7968 58.7601 65.7968 58.6933 65.5012L58.3739 64.0883C58.0543 62.6745 57.0729 61.5014 55.7378 60.9372C55.5547 60.8598 55.5547 60.6003 55.7378 60.5229C57.0729 59.9587 58.0543 58.7856 58.3739 57.3719L58.6933 55.9589Z" fill="#7FE9B3"/>
<path d="M10.7207 10.7128C10.7875 10.4172 11.2086 10.4172 11.2754 10.7128L11.5949 12.1258C11.9145 13.5395 12.8958 14.7126 14.231 15.2768C14.4141 15.3542 14.4141 15.6137 14.231 15.6911C12.8958 16.2553 11.9145 17.4284 11.5949 18.8422L11.2754 20.2552C11.2086 20.5507 10.7875 20.5507 10.7207 20.2552L10.4012 18.8422C10.0816 17.4284 9.10024 16.2553 7.76512 15.6911C7.582 15.6137 7.582 15.3542 7.76512 15.2768C9.10024 14.7126 10.0816 13.5395 10.4012 12.1258L10.7207 10.7128Z" fill="#7FE9B3"/>
<path d="M49.0648 8.48584C51.1729 8.48584 52.8825 10.1955 52.8825 12.3036V60.0255C52.8825 62.1336 51.1729 63.8432 49.0648 63.8432H22.8178C20.7096 63.8432 19 62.1336 19 60.0255V12.3036C19 10.1955 20.7096 8.48584 22.8178 8.48584H49.0648Z" fill="#58DA98"/>
<path d="M49.0648 9.98853C50.3445 9.98853 51.3825 11.0266 51.3825 12.3063V60.0282C51.3825 61.3078 50.3445 62.3459 49.0648 62.3459H22.8178C21.5381 62.3459 20.5 61.3078 20.5 60.0282V12.3063C20.5 11.0266 21.5381 9.98853 22.8178 9.98853H49.0648Z" fill="#FFF1C0" stroke="#FFC670" stroke-width="3"/>
<path d="M41.8938 28.9736C42.8077 28.9736 43.5736 29.662 43.6727 30.5699L44.9492 42.2952C45.0649 43.3534 44.2358 44.278 43.1704 44.278H28.6104C27.545 44.278 26.7159 43.3534 26.8316 42.2952L28.1082 30.5699C28.2072 29.662 28.9731 28.9736 29.887 28.9736H41.8938Z" fill="#7FE9B3"/>
<path d="M52.89 55.5151V60.069C52.89 62.1865 51.18 63.9037 49.0714 63.9037H22.8186C20.71 63.9037 19 62.1865 19 60.069V55.5151H52.89Z" fill="#FFC670"/>
<mask id="mask0" mask-type="alpha" maskUnits="userSpaceOnUse" x="30" y="19" width="11" height="14">
<rect x="30.856" y="19.1646" width="10.0663" height="13.0862" fill="#34C37A"/>
</mask>
<g mask="url(#mask0)">
<path fill-rule="evenodd" clip-rule="evenodd" d="M39.156 32.2497V26.6573C39.156 24.8536 37.6937 23.3914 35.89 23.3914C34.0863 23.3914 32.624 24.8536 32.624 26.6573V32.2497C32.624 34.0535 34.0863 35.5157 35.89 35.5157C37.6937 35.5157 39.156 34.0535 39.156 32.2497ZM35.89 21.9597C33.2956 21.9597 31.1924 24.0629 31.1924 26.6573V32.2497C31.1924 34.8442 33.2956 36.9474 35.89 36.9474C38.4844 36.9474 40.5876 34.8442 40.5876 32.2497V26.6573C40.5876 24.0629 38.4844 21.9597 35.89 21.9597Z" fill="#34C37A"/>
</g>
<rect x="30.1626" y="57.6404" width="12.1691" height="3.57914" rx="1.78957" fill="white"/>
</svg>
