<svg width="72" height="73" viewBox="0 0 72 73" fill="none" xmlns="http://www.w3.org/2000/svg">
<rect y="0.48584" width="72" height="72" rx="24" fill="white"/>
<path d="M57.7207 52.7128C57.7875 52.4172 58.2086 52.4172 58.2754 52.7128L58.5949 54.1258C58.9145 55.5395 59.8958 56.7126 61.231 57.2768C61.4141 57.3542 61.4141 57.6137 61.231 57.6911C59.8958 58.2553 58.9145 59.4284 58.5949 60.8422L58.2754 62.2552C58.2086 62.5507 57.7875 62.5507 57.7207 62.2552L57.4012 60.8422C57.0816 59.4284 56.1002 58.2553 54.7651 57.6911C54.582 57.6137 54.582 57.3542 54.7651 57.2768C56.1002 56.7126 57.0816 55.5395 57.4012 54.1258L57.7207 52.7128Z" fill="#7FE9B3"/>
<path d="M13.7207 10.7128C13.7875 10.4172 14.2086 10.4172 14.2754 10.7128L14.5949 12.1258C14.9145 13.5395 15.8958 14.7126 17.231 15.2768C17.4141 15.3542 17.4141 15.6137 17.231 15.6911C15.8958 16.2553 14.9145 17.4284 14.5949 18.8422L14.2754 20.2552C14.2086 20.5507 13.7875 20.5507 13.7207 20.2552L13.4012 18.8422C13.0816 17.4284 12.1002 16.2553 10.7651 15.6911C10.582 15.6137 10.582 15.3542 10.7651 15.2768C12.1002 14.7126 13.0816 13.5395 13.4012 12.1258L13.7207 10.7128Z" fill="#7FE9B3"/>
<path d="M44.239 22.4725L28.0059 40.4344L23.9942 55.9849L43.8505 61.1721L50.888 33.6867L44.239 22.4725Z" fill="#E8AB4F"/>
<path d="M59.6574 14.0812C58.9934 13.216 57.9966 12.6537 56.9255 12.4647C55.7597 12.259 54.5059 12.4957 53.4963 13.2705L42.0879 22.0557L42.9553 23.1859L43.8714 24.3796L47.2624 21.7463C49.855 23.9974 53.7361 24.1644 56.5227 22.0258L58.8467 20.2423C60.7694 18.7667 61.1329 16.0039 59.6574 14.0812ZM57.0632 17.9183L54.7393 19.7018C53.2226 20.8657 51.1856 20.8862 49.6676 19.9001L55.2798 15.5944C55.9217 15.1018 56.8408 15.2227 57.3334 15.8646C57.8249 16.505 57.7036 17.4269 57.0632 17.9183Z" fill="#34C37A"/>
<path d="M9.5451 37.7968L30.664 21.6477L42.8695 23.2537L41.2563 35.5139L20.2021 51.6833L14.873 44.7393L13.683 45.6525L14.873 44.7392L9.5451 37.7968Z" fill="#FFF1C0" stroke="#FFC670" stroke-width="3"/>
<path d="M21.0188 35.4424L22.7042 37.6385C22.7462 37.6932 22.7945 37.6996 22.8492 37.6576L23.3139 37.301C24.6019 36.3125 24.9102 35.3809 24.2388 34.5061C23.9544 34.1355 23.6025 33.9663 23.1832 33.9985C22.7653 34.02 22.2495 34.2662 21.6359 34.7371C21.4051 34.9142 21.2003 35.1003 21.0218 35.2953C20.9825 35.3447 20.9815 35.3938 21.0188 35.4424ZM25.2089 41.2042C25.1863 41.376 25.1052 41.5155 24.9654 41.6227C24.8257 41.73 24.6699 41.7723 24.4981 41.7497C24.3263 41.7271 24.1868 41.6459 24.0796 41.5062L19.7926 35.92C19.676 35.7682 19.6244 35.6002 19.6377 35.4163C19.6463 35.2263 19.7219 35.0669 19.8644 34.9382C20.2767 34.5446 20.6924 34.1869 21.1116 33.8652C21.9864 33.1938 22.7692 32.849 23.4597 32.8306C24.1503 32.8122 24.7148 33.0886 25.153 33.6597C25.5074 34.1214 25.6919 34.6072 25.7068 35.1171C25.723 35.6162 25.5766 36.0858 25.2675 36.5257C25.2614 36.5304 25.2607 36.5358 25.2653 36.5418C25.2747 36.554 25.2824 36.5577 25.2884 36.5531C25.6849 36.5288 26.1999 36.7031 26.8336 37.0759L28.5497 38.1046C28.6869 38.1827 28.7587 38.3014 28.765 38.4606C28.7714 38.6199 28.7138 38.7461 28.5923 38.8393C28.4344 38.9606 28.259 39.0276 28.0661 39.0404C27.8686 39.0472 27.6866 38.9987 27.52 38.8949L25.8129 37.8592C25.4336 37.629 25.13 37.529 24.9021 37.5591C24.6756 37.5784 24.3467 37.7536 23.9154 38.0847L23.4506 38.4413C23.3959 38.4833 23.3896 38.5316 23.4315 38.5863L25.082 40.7369C25.1892 40.8766 25.2315 41.0324 25.2089 41.2042Z" fill="#58DA98"/>
<path d="M26.6342 31.1329L28.4735 33.5296C28.5108 33.5782 28.5614 33.5876 28.6254 33.5578C28.9679 33.3625 29.2606 33.1716 29.5036 32.9851C30.0383 32.5749 30.3598 32.1447 30.4681 31.6947C30.5718 31.2387 30.4558 30.7919 30.1201 30.3545C29.7845 29.9171 29.3906 29.6932 28.9387 29.6829C28.482 29.6665 27.9803 29.8681 27.4336 30.2878C27.142 30.5115 26.8795 30.7419 26.6463 30.9788C26.6009 31.0329 26.5969 31.0843 26.6342 31.1329ZM30.8243 36.8947C30.8017 37.0665 30.7206 37.206 30.5808 37.3133C30.4411 37.4205 30.2853 37.4628 30.1135 37.4402C29.9417 37.4176 29.8022 37.3364 29.695 37.1967L25.408 31.6106C25.2961 31.4648 25.2445 31.2969 25.2531 31.1068C25.2617 30.9168 25.3342 30.7598 25.4707 30.6357C25.9498 30.1908 26.4293 29.7842 26.9093 29.4159C27.7477 28.7725 28.52 28.4645 29.2265 28.4919C29.9282 28.5132 30.5309 28.852 31.0344 29.5081C32.1767 30.9965 31.8973 32.3935 30.1962 33.6989C29.8378 33.974 29.5186 34.1996 29.2387 34.3758C29.1901 34.4131 29.1845 34.456 29.2218 34.5046L30.6974 36.4274C30.8046 36.5672 30.8469 36.7229 30.8243 36.8947Z" fill="#58DA98"/>
<path fill-rule="evenodd" clip-rule="evenodd" d="M23.2014 34.3199L23.2014 34.3198C22.8838 34.3361 22.4331 34.5321 21.8335 34.9923C21.6676 35.1195 21.5174 35.2507 21.3824 35.3856L22.8283 37.2696L23.1199 37.0458C23.7429 36.5676 24.0829 36.1363 24.2075 35.7599C24.3236 35.409 24.2656 35.067 23.9854 34.7019C23.7585 34.4063 23.5071 34.2964 23.2096 34.3192L23.2014 34.3199ZM21.0235 35.2953C21.2021 35.1003 21.4068 34.9143 21.6377 34.7371C22.2513 34.2662 22.767 34.02 23.1849 33.9985C23.6043 33.9663 23.9561 34.1355 24.2405 34.5061C24.9119 35.3809 24.6036 36.3126 23.3157 37.301L22.8509 37.6576C22.7963 37.6996 22.7479 37.6932 22.706 37.6386L21.0205 35.4424C20.9832 35.3938 20.9842 35.3448 21.0235 35.2953ZM26.8353 37.0759L28.5515 38.1046C28.6887 38.1827 28.7604 38.3014 28.7668 38.4606C28.7732 38.6199 28.7156 38.7461 28.5941 38.8393C28.4361 38.9606 28.2607 39.0276 28.0679 39.0405C27.8704 39.0472 27.6883 38.9987 27.5217 38.8949L25.8147 37.8592C25.4354 37.629 25.1317 37.529 24.9038 37.5591C24.6774 37.5785 24.3485 37.7536 23.9171 38.0847L23.4524 38.4413C23.3977 38.4833 23.3913 38.5316 23.4333 38.5863L25.0838 40.7369C25.191 40.8766 25.2333 41.0324 25.2107 41.2042C25.1881 41.376 25.1069 41.5155 24.9672 41.6228C24.8275 41.73 24.6717 41.7723 24.4999 41.7497C24.3281 41.7271 24.1886 41.6459 24.0814 41.5062L19.7943 35.9201C19.6778 35.7682 19.6262 35.6003 19.6394 35.4163C19.6481 35.2263 19.7236 35.0669 19.8662 34.9382C20.2785 34.5446 20.6942 34.1869 21.1134 33.8652C21.9882 33.1939 22.7709 32.849 23.4615 32.8306C24.1521 32.8123 24.7165 33.0886 25.1548 33.6597C25.5091 34.1214 25.6937 34.6072 25.7085 35.1171C25.7212 35.5066 25.6348 35.878 25.4494 36.2315C25.4428 36.244 25.4361 36.2565 25.4293 36.269C25.3867 36.3469 25.3393 36.424 25.2869 36.5002C25.2811 36.5087 25.2752 36.5173 25.2692 36.5258C25.2631 36.5304 25.2624 36.5358 25.2671 36.5419C25.2764 36.554 25.2841 36.5578 25.2902 36.5531C25.2957 36.5528 25.3013 36.5525 25.3068 36.5522C25.3936 36.5481 25.4859 36.5534 25.5839 36.568C25.5968 36.57 25.6098 36.5721 25.623 36.5743C25.9621 36.6327 26.3662 36.7999 26.8353 37.0759ZM25.7852 36.2786C26.1555 36.3608 26.5625 36.5422 26.9984 36.7987L27.0007 36.8L27.0007 36.8L28.7141 37.8271C28.9467 37.961 29.0775 38.1803 29.0882 38.4478C29.0985 38.7065 28.9982 38.9346 28.7899 39.0945C28.5832 39.2531 28.3475 39.3442 28.0893 39.3614L28.0789 39.3621L28.0789 39.3619C27.8187 39.3708 27.5741 39.3061 27.3534 39.1689L25.6479 38.1342C25.2812 37.9117 25.0591 37.863 24.946 37.878L24.9386 37.8789L24.9312 37.8796C24.8803 37.8839 24.7861 37.9103 24.6385 37.9889C24.495 38.0653 24.3203 38.1807 24.1129 38.3398L23.8213 38.5636L25.3389 40.5411C25.4971 40.7472 25.5635 40.9882 25.5296 41.2462C25.4956 41.5041 25.3692 41.7197 25.163 41.8779C24.9569 42.0361 24.7159 42.1025 24.4579 42.0686C24.2 42.0346 23.9844 41.9082 23.8262 41.702L19.5392 36.1159C19.3776 35.9052 19.3003 35.6615 19.3183 35.3974C19.3318 35.1241 19.4447 34.887 19.6471 34.7027C20.0661 34.3029 20.4895 33.9386 20.9176 33.6101C21.8166 32.9201 22.6648 32.5301 23.453 32.5091C24.2515 32.4879 24.9121 32.8151 25.4099 33.4639C25.7993 33.9712 26.0128 34.5206 26.03 35.1072C26.0433 35.5175 25.9601 35.909 25.7852 36.2786ZM28.9289 30.0044L28.9289 30.0044C28.5767 29.9917 28.1475 30.1466 27.6311 30.5429C27.4015 30.7192 27.1919 30.8987 27.0018 31.0814L28.62 33.1899C28.8872 33.0315 29.1166 32.8781 29.3096 32.73C29.8107 32.3454 30.0714 31.973 30.1567 31.6214C30.2345 31.2764 30.1552 30.9262 29.8667 30.5504C29.576 30.1715 29.2663 30.0121 28.9331 30.0045L28.9289 30.0044ZM30.4699 31.6947C30.3615 32.1447 30.04 32.5749 29.5054 32.9852C29.2624 33.1716 28.9697 33.3625 28.6272 33.5578C28.5632 33.5876 28.5125 33.5782 28.4752 33.5296L26.6359 31.1329C26.5986 31.0843 26.6027 31.033 26.648 30.9789C26.8813 30.7419 27.1437 30.5116 27.4353 30.2878C27.9821 29.8682 28.4838 29.6666 28.9404 29.6829C29.3924 29.6933 29.7862 29.9171 30.1219 30.3545C30.4576 30.7919 30.5736 31.2387 30.4699 31.6947ZM31.145 36.9367C31.111 37.1946 30.9846 37.4102 30.7784 37.5685C30.5723 37.7267 30.3313 37.7931 30.0733 37.7591C29.8154 37.7252 29.5998 37.5987 29.4416 37.3926L25.1546 31.8064C24.9948 31.5982 24.9216 31.3552 24.9335 31.0923C24.9459 30.8204 25.0537 30.5824 25.2548 30.399C25.7403 29.9482 26.2271 29.5354 26.7152 29.1608C27.5843 28.4938 28.429 28.1395 29.2393 28.1705C30.0546 28.1957 30.7409 28.5952 31.2913 29.3123C31.8999 30.1054 32.1619 30.9191 31.9987 31.7352C31.8376 32.5406 31.2759 33.2771 30.3938 33.9541C30.1184 34.1654 29.8637 34.3497 29.6301 34.5061L30.9543 36.2316C31.1125 36.4378 31.1789 36.6788 31.145 36.9367ZM29.2405 34.3758C29.5204 34.1996 29.8395 33.974 30.198 33.6989C31.899 32.3935 32.1784 30.9965 31.0361 29.5081C30.5326 28.852 29.93 28.5133 29.2282 28.4919C28.5218 28.4645 27.7494 28.7725 26.911 29.4159C26.4311 29.7842 25.9516 30.1908 25.4725 30.6357C25.336 30.7598 25.2635 30.9168 25.2548 31.1068C25.2462 31.2969 25.2979 31.4648 25.4097 31.6106L29.6968 37.1967C29.804 37.3365 29.9435 37.4176 30.1153 37.4402C30.2871 37.4628 30.4429 37.4205 30.5826 37.3133C30.7223 37.2061 30.8035 37.0665 30.8261 36.8947C30.8487 36.7229 30.8064 36.5672 30.6992 36.4275L29.2235 34.5047C29.1862 34.4561 29.1919 34.4131 29.2405 34.3758Z" fill="#58DA98"/>
</svg>
