<svg width="72" height="73" viewBox="0 0 72 73" fill="none" xmlns="http://www.w3.org/2000/svg">
<rect y="0.48584" width="72" height="72" rx="24" fill="white"/>
<circle cx="36" cy="36.4858" r="22" fill="#FFC670"/>
<ellipse cx="35.9998" cy="36.4859" rx="17.0374" ry="17.2518" fill="#FFF1C0"/>
<path d="M28.1726 31.8398V36.0477C28.1726 36.1525 28.225 36.2049 28.3297 36.2049H29.2202C31.6879 36.2049 32.9218 35.3668 32.9218 33.6906C32.9218 32.9805 32.6541 32.4509 32.1186 32.1017C31.5948 31.7409 30.7451 31.5604 29.5694 31.5604C29.1271 31.5604 28.708 31.5954 28.3123 31.6652C28.2191 31.6885 28.1726 31.7467 28.1726 31.8398ZM27.8932 42.6652C27.707 42.8514 27.48 42.9446 27.2123 42.9446C26.9445 42.9446 26.7176 42.8514 26.5313 42.6652C26.3451 42.479 26.252 42.252 26.252 41.9842V31.2811C26.252 30.9901 26.3451 30.7398 26.5313 30.5303C26.7176 30.3091 26.9562 30.1869 27.2472 30.1636C28.1086 30.0705 28.9408 30.0239 29.744 30.0239C31.4202 30.0239 32.6832 30.3324 33.5329 30.9493C34.3826 31.5663 34.8075 32.4218 34.8075 33.516C34.8075 34.4006 34.5805 35.1573 34.1266 35.7858C33.6842 36.4028 33.0731 36.8335 32.2932 37.0779C32.2816 37.0779 32.2758 37.0837 32.2758 37.0954C32.2758 37.1186 32.2816 37.1303 32.2932 37.1303C32.7938 37.4678 33.2535 38.1546 33.6726 39.1906L34.79 42.0192C34.8832 42.2403 34.8599 42.4499 34.7202 42.6477C34.5805 42.8456 34.3943 42.9446 34.1615 42.9446C33.8588 42.9446 33.5853 42.8631 33.3408 42.7001C33.0964 42.5255 32.9218 42.2985 32.817 42.0192L31.717 39.1906C31.4726 38.562 31.199 38.1604 30.8964 37.9858C30.6054 37.7996 30.0467 37.7065 29.2202 37.7065H28.3297C28.225 37.7065 28.1726 37.7588 28.1726 37.8636V41.9842C28.1726 42.252 28.0795 42.479 27.8932 42.6652Z" fill="#58DA98"/>
<path d="M38.9318 31.8398V36.4319C38.9318 36.525 38.9842 36.5832 39.089 36.6065C39.6826 36.6879 40.2122 36.7287 40.6779 36.7287C41.7022 36.7287 42.4879 36.5075 43.035 36.0652C43.5821 35.6112 43.8556 34.9652 43.8556 34.1271C43.8556 33.289 43.5879 32.6546 43.0525 32.2239C42.517 31.7816 41.7255 31.5604 40.6779 31.5604C40.1191 31.5604 39.5895 31.5954 39.089 31.6652C38.9842 31.6885 38.9318 31.7467 38.9318 31.8398ZM38.6525 42.6652C38.4662 42.8514 38.2392 42.9446 37.9715 42.9446C37.7038 42.9446 37.4768 42.8514 37.2906 42.6652C37.1043 42.479 37.0112 42.252 37.0112 41.9842V31.2811C37.0112 31.0017 37.1043 30.7514 37.2906 30.5303C37.4768 30.3091 37.7096 30.1869 37.989 30.1636C38.9784 30.0705 39.9329 30.0239 40.8525 30.0239C42.4588 30.0239 43.6752 30.3673 44.5017 31.0541C45.3281 31.7292 45.7413 32.6954 45.7413 33.9525C45.7413 36.8043 44.1117 38.2303 40.8525 38.2303C40.1657 38.2303 39.572 38.207 39.0715 38.1604C38.9784 38.1604 38.9318 38.207 38.9318 38.3001V41.9842C38.9318 42.252 38.8387 42.479 38.6525 42.6652Z" fill="#58DA98"/>
<path fill-rule="evenodd" clip-rule="evenodd" d="M31.8447 32.5077L31.8448 32.5076C31.4467 32.2334 30.7219 32.0526 29.573 32.0526C29.2552 32.0526 28.9527 32.0718 28.665 32.1094V35.7193H29.2237C30.4175 35.7193 31.2267 35.5138 31.7252 35.1752C32.1899 34.8596 32.4364 34.3934 32.4364 33.6939C32.4364 33.1274 32.235 32.7622 31.8551 32.5145L31.8447 32.5077ZM28.3158 31.6685C28.7116 31.5986 29.1306 31.5637 29.573 31.5637C30.7486 31.5637 31.5983 31.7441 32.1222 32.105C32.6576 32.4542 32.9253 32.9838 32.9253 33.6939C32.9253 35.3701 31.6915 36.2082 29.2237 36.2082H28.3333C28.2285 36.2082 28.1761 36.1558 28.1761 36.051V31.8431C28.1761 31.75 28.2227 31.6918 28.3158 31.6685ZM33.6761 39.1939L34.7936 42.0225C34.8867 42.2436 34.8634 42.4531 34.7237 42.651C34.5841 42.8489 34.3978 42.9479 34.165 42.9479C33.8624 42.9479 33.5888 42.8664 33.3444 42.7034C33.0999 42.5288 32.9253 42.3018 32.8206 42.0225L31.7206 39.1939C31.4761 38.5653 31.2026 38.1637 30.8999 37.9891C30.6089 37.8029 30.0502 37.7098 29.2237 37.7098H28.3333C28.2285 37.7098 28.1761 37.7621 28.1761 37.8669V41.9875C28.1761 42.2553 28.083 42.4822 27.8968 42.6685C27.7105 42.8547 27.4835 42.9479 27.2158 42.9479C26.9481 42.9479 26.7211 42.8547 26.5349 42.6685C26.3486 42.4822 26.2555 42.2553 26.2555 41.9875V31.2844C26.2555 30.9934 26.3486 30.7431 26.5349 30.5336C26.7211 30.3124 26.9597 30.1902 27.2507 30.1669C28.1121 30.0738 28.9444 30.0272 29.7476 30.0272C31.4237 30.0272 32.6867 30.3357 33.5364 30.9526C34.3862 31.5695 34.811 32.4251 34.811 33.5193C34.811 34.4039 34.5841 35.1606 34.1301 35.7891C33.785 36.2705 33.3371 36.6385 32.7864 36.8931C32.7669 36.9021 32.7472 36.911 32.7274 36.9197C32.6039 36.9743 32.4754 37.0233 32.3418 37.0668C32.3268 37.0717 32.3118 37.0765 32.2968 37.0812C32.2851 37.0812 32.2793 37.087 32.2793 37.0986C32.2793 37.1219 32.2851 37.1336 32.2968 37.1336C32.3037 37.1383 32.3107 37.143 32.3177 37.1479C32.4261 37.2233 32.5325 37.3151 32.6371 37.4234C32.6509 37.4377 32.6646 37.4523 32.6784 37.4671C33.0333 37.8513 33.3659 38.4269 33.6761 39.1939ZM33.1477 37.2607C33.5182 37.7025 33.841 38.2978 34.1293 39.0106L34.1308 39.0142L34.1308 39.0143L35.2465 41.8383C35.4031 42.215 35.3579 42.6005 35.1232 42.933C34.8963 43.2544 34.5641 43.4367 34.165 43.4367C33.7689 43.4367 33.4005 43.3284 33.0732 43.1102L33.0601 43.1014L33.0602 43.1012C32.7382 42.8712 32.5032 42.5667 32.3639 42.1971L31.2649 39.3711C31.0286 38.7635 30.8059 38.4993 30.6556 38.4126L30.6459 38.407L30.6364 38.4009C30.571 38.359 30.4329 38.3036 30.1823 38.2618C29.9385 38.2212 29.6211 38.1986 29.2237 38.1986H28.665V41.9875C28.665 42.3825 28.5221 42.7346 28.2425 43.0142C27.9628 43.2938 27.6108 43.4367 27.2158 43.4367C26.8208 43.4367 26.4688 43.2938 26.1892 43.0142C25.9096 42.7346 25.7666 42.3825 25.7666 41.9875V31.2844C25.7666 30.8808 25.899 30.5154 26.1651 30.2137C26.4343 29.8965 26.7899 29.7151 27.2044 29.6802C28.0797 29.5858 28.9275 29.5383 29.7476 29.5383C31.4701 29.5383 32.8539 29.8529 33.8237 30.557C34.8062 31.2704 35.2999 32.2763 35.2999 33.5193C35.2999 34.4913 35.049 35.3515 34.5269 36.0747C34.1632 36.5818 33.7006 36.9768 33.1477 37.2607ZM42.7446 32.6042L42.7446 32.6041C42.3317 32.263 41.6708 32.0526 40.6814 32.0526C40.2414 32.0526 39.8224 32.0751 39.4243 32.1195V36.1596C39.893 36.2157 40.3117 36.2431 40.6814 36.2431C41.6415 36.2431 42.3005 36.0352 42.7287 35.6903C43.1419 35.3463 43.3703 34.8505 43.3703 34.1304C43.3703 33.4044 43.1443 32.9257 42.7496 32.6082L42.7446 32.6042ZM43.0385 36.0685C42.4914 36.5108 41.7057 36.732 40.6814 36.732C40.2158 36.732 39.6862 36.6912 39.0925 36.6098C38.9877 36.5865 38.9354 36.5283 38.9354 36.4352V31.8431C38.9354 31.75 38.9877 31.6918 39.0925 31.6685C39.593 31.5986 40.1227 31.5637 40.6814 31.5637C41.729 31.5637 42.5205 31.7849 43.056 32.2272C43.5914 32.6579 43.8592 33.2923 43.8592 34.1304C43.8592 34.9685 43.5856 35.6145 43.0385 36.0685ZM39.0017 43.0142C38.7221 43.2938 38.37 43.4367 37.975 43.4367C37.5801 43.4367 37.228 43.2938 36.9484 43.0142C36.6688 42.7346 36.5258 42.3825 36.5258 41.9875V31.2844C36.5258 30.8854 36.6625 30.5246 36.9201 30.2187C37.1866 29.9022 37.5368 29.715 37.9491 29.6799C38.9517 29.5856 39.9207 29.5383 40.856 29.5383C42.5211 29.5383 43.8676 29.8927 44.8161 30.6801C45.7759 31.4649 46.2338 32.5817 46.2338 33.9558C46.2338 35.4753 45.7966 36.699 44.8446 37.532C43.9051 38.3541 42.5461 38.7225 40.856 38.7225C40.3283 38.7225 39.8508 38.7089 39.4243 38.6814V41.9875C39.4243 42.3825 39.2813 42.7346 39.0017 43.0142ZM39.075 38.1637C39.5756 38.2103 40.1692 38.2336 40.856 38.2336C44.1153 38.2336 45.7449 36.8076 45.7449 33.9558C45.7449 32.6986 45.3317 31.7325 44.5052 31.0574C43.6788 30.3706 42.4623 30.0272 40.856 30.0272C39.9364 30.0272 38.9819 30.0738 37.9925 30.1669C37.7131 30.1902 37.4803 30.3124 37.2941 30.5336C37.1079 30.7547 37.0147 31.005 37.0147 31.2844V41.9875C37.0147 42.2553 37.1079 42.4822 37.2941 42.6685C37.4803 42.8547 37.7073 42.9479 37.975 42.9479C38.2428 42.9479 38.4698 42.8547 38.656 42.6685C38.8422 42.4822 38.9354 42.2553 38.9354 41.9875V38.3034C38.9354 38.2103 38.9819 38.1637 39.075 38.1637Z" fill="#58DA98"/>
<path d="M10.7226 11.7128C10.7894 11.4172 11.2106 11.4172 11.2774 11.7128L11.5968 13.1258C11.9164 14.5395 12.8978 15.7126 14.2329 16.2768C14.416 16.3542 14.416 16.6137 14.2329 16.6911C12.8978 17.2553 11.9164 18.4284 11.5968 19.8422L11.2774 21.2552C11.2106 21.5507 10.7894 21.5507 10.7226 21.2552L10.4032 19.8422C10.0836 18.4284 9.1022 17.2553 7.76708 16.6911C7.58395 16.6137 7.58395 16.3542 7.76708 16.2768C9.1022 15.7126 10.0836 14.5395 10.4032 13.1258L10.7226 11.7128Z" fill="#58DA98"/>
<path d="M58.7226 53.7128C58.7894 53.4172 59.2106 53.4172 59.2774 53.7128L59.5968 55.1258C59.9164 56.5395 60.8978 57.7126 62.2329 58.2768C62.416 58.3542 62.416 58.6137 62.2329 58.6911C60.8978 59.2553 59.9164 60.4284 59.5968 61.8422L59.2774 63.2552C59.2106 63.5507 58.7894 63.5507 58.7226 63.2552L58.4032 61.8422C58.0836 60.4284 57.1022 59.2553 55.7671 58.6911C55.584 58.6137 55.584 58.3542 55.7671 58.2768C57.1022 57.7126 58.0836 56.5395 58.4032 55.1258L58.7226 53.7128Z" fill="#58DA98"/>
</svg>
