<svg width="72" height="73" viewBox="0 0 72 73" fill="none" xmlns="http://www.w3.org/2000/svg">
<rect y="0.48584" width="72" height="72" rx="24" fill="white"/>
<path d="M59.3809 53.8851C59.4571 53.548 59.9374 53.548 60.0136 53.8851L60.2642 54.9937C60.5678 56.3367 61.5001 57.4511 62.7684 57.9871C62.9424 58.0606 62.9424 58.3071 62.7684 58.3806C61.5001 58.9166 60.5678 60.031 60.2642 61.374L60.0136 62.4826C59.9374 62.8197 59.4571 62.8197 59.3809 62.4826L59.1303 61.374C58.8267 60.031 57.8944 58.9166 56.6261 58.3806C56.4521 58.3071 56.4521 58.0606 56.6261 57.9871C57.8944 57.4511 58.8267 56.3367 59.1303 54.9937L59.3809 53.8851Z" fill="#7FE9B3"/>
<path d="M10.6391 11.082C10.7261 10.6975 11.2739 10.6975 11.3609 11.082L11.6468 12.3466C11.9931 13.8787 13.0566 15.1499 14.5034 15.7614C14.7019 15.8452 14.7019 16.1264 14.5034 16.2103C13.0566 16.8217 11.9931 18.093 11.6468 19.625L11.3609 20.8897C11.2739 21.2742 10.7261 21.2742 10.6391 20.8897L10.3532 19.625C10.0069 18.093 8.94341 16.8217 7.49658 16.2103C7.29813 16.1264 7.29813 15.8452 7.49658 15.7614C8.94341 15.1499 10.0069 13.8787 10.3532 12.3466L10.6391 11.082Z" fill="#7FE9B3"/>
<rect x="11" y="23.5718" width="41.234" height="30.9255" rx="3.43617" fill="#FFF1C0"/>
<rect x="14.2554" y="45.2747" width="8.68085" height="6.51064" rx="0.723404" fill="#FFC670"/>
<path d="M28.1792 23.5725H35.0515V33.881C35.0515 35.7788 33.5131 37.3172 31.6154 37.3172C29.7176 37.3172 28.1792 35.7788 28.1792 33.881V23.5725Z" fill="#FFC670"/>
<rect x="38.1284" y="39.8477" width="19.5319" height="14.6489" rx="3.43617" fill="#FFC670"/>
<rect x="39.6714" y="50.1265" width="4.11198" height="3.08399" rx="0.723404" fill="#FFF1C0"/>
<path d="M46.2666 39.8477H49.5219V44.7306C49.5219 45.6296 48.7932 46.3583 47.8943 46.3583C46.9953 46.3583 46.2666 45.6296 46.2666 44.7306V39.8477Z" fill="#F8A162"/>
<circle cx="53.3197" cy="25.744" r="6.51064" fill="#ADF3CB"/>
<path d="M61.543 23.4856L59.8968 23.2878C59.7286 22.6599 59.4822 22.0667 59.1649 21.5163L60.1883 20.2155C60.3447 20.0155 60.327 19.7063 60.1462 19.5263L58.4499 17.8293C58.2713 17.65 57.9614 17.6308 57.7607 17.7872L56.4576 18.8121C55.9094 18.4948 55.3161 18.2484 54.6897 18.0816L54.4927 16.4355C54.4624 16.1839 54.23 15.978 53.9762 15.978H51.5766C51.3228 15.978 51.0903 16.1839 51.0608 16.4355L50.8631 18.0816C50.2359 18.2491 49.6419 18.4963 49.0937 18.8128L47.7913 17.7894C47.5921 17.633 47.2822 17.6515 47.1029 17.8308L45.4058 19.5285C45.2272 19.7071 45.2088 20.017 45.3659 20.2177L46.3886 21.5192C46.0713 22.0682 45.8249 22.6621 45.6574 23.29L44.0119 23.4871C43.7603 23.5166 43.5537 23.749 43.5537 24.0035V26.403C43.5537 26.6568 43.7596 26.8878 44.0119 26.9188L45.6581 27.1165C45.8264 27.7422 46.0721 28.3354 46.3894 28.8844L45.3667 30.1874C45.211 30.3874 45.2287 30.6965 45.4087 30.8765L47.1029 32.5743C47.2822 32.7529 47.5921 32.7728 47.7913 32.6164L49.0944 31.5908C49.6434 31.9081 50.2366 32.1552 50.8638 32.322L51.0616 33.9674C51.0918 34.2197 51.3235 34.4248 51.5773 34.4248H53.9769C54.2315 34.4248 54.4632 34.2197 54.4927 33.9674L54.6904 32.322C55.3183 32.1538 55.9116 31.9073 56.4598 31.5908L57.7629 32.6142C57.9629 32.7706 58.272 32.7521 58.4514 32.5728L60.1477 30.8751C60.3278 30.6965 60.3462 30.3866 60.189 30.1852L59.1649 28.8836C59.4829 28.3347 59.7286 27.7415 59.8968 27.115L61.5423 26.9173C61.7947 26.887 62.0005 26.6568 62.0005 26.4015V24.0021C62.0013 23.7468 61.7961 23.5158 61.543 23.4856ZM52.7779 29.8126C50.2307 29.8126 48.1662 27.7481 48.1662 25.2011C48.1662 22.654 50.2307 20.5895 52.7779 20.5895C55.325 20.5895 57.3896 22.654 57.3896 25.2011C57.3896 27.7481 55.3257 29.8126 52.7779 29.8126Z" fill="#58DA98"/>
</svg>
