<svg width="72" height="73" viewBox="0 0 72 73" fill="none" xmlns="http://www.w3.org/2000/svg">
<rect y="0.48584" width="72" height="72" rx="24" fill="white"/>
<path d="M57.7207 52.7128C57.7875 52.4172 58.2086 52.4172 58.2754 52.7128L58.5949 54.1258C58.9145 55.5395 59.8958 56.7126 61.231 57.2768C61.4141 57.3542 61.4141 57.6137 61.231 57.6911C59.8958 58.2553 58.9145 59.4284 58.5949 60.8422L58.2754 62.2552C58.2086 62.5507 57.7875 62.5507 57.7207 62.2552L57.4012 60.8422C57.0816 59.4284 56.1002 58.2553 54.7651 57.6911C54.582 57.6137 54.582 57.3542 54.7651 57.2768C56.1002 56.7126 57.0816 55.5395 57.4012 54.1258L57.7207 52.7128Z" fill="#7FE9B3"/>
<path d="M13.7207 10.7128C13.7875 10.4172 14.2086 10.4172 14.2754 10.7128L14.5949 12.1258C14.9145 13.5395 15.8958 14.7126 17.231 15.2768C17.4141 15.3542 17.4141 15.6137 17.231 15.6911C15.8958 16.2553 14.9145 17.4284 14.5949 18.8422L14.2754 20.2552C14.2086 20.5507 13.7875 20.5507 13.7207 20.2552L13.4012 18.8422C13.0816 17.4284 12.1002 16.2553 10.7651 15.6911C10.582 15.6137 10.582 15.3542 10.7651 15.2768C12.1002 14.7126 13.0816 13.5395 13.4012 12.1258L13.7207 10.7128Z" fill="#7FE9B3"/>
<path d="M34.186 22.4172C33.9797 22.4172 33.7762 22.3225 33.6445 22.1435C33.0337 21.3136 31.9468 20.3615 30.2364 20.5442C28.2229 20.7587 26.7275 20.1178 25.8276 19.5426C25.515 19.3428 25.4236 18.9275 25.6233 18.6149C25.823 18.3023 26.2385 18.211 26.551 18.4107C27.2699 18.8701 28.4681 19.3819 30.0942 19.2084C32.5622 18.9463 34.0557 20.4358 34.7264 21.3473C34.9463 21.646 34.8823 22.0665 34.5835 22.2864C34.4636 22.3746 34.3243 22.4172 34.186 22.4172Z" fill="#FFD064"/>
<path d="M27.1555 25.9849C27.0356 25.9849 26.9144 25.9529 26.8047 25.8855C26.4885 25.6915 26.3897 25.2779 26.5837 24.9617C27.4447 23.5592 29.0224 22.5952 31.1465 22.1741C32.6952 21.8671 33.9947 21.9512 34.0491 21.955C34.4192 21.9804 34.6986 22.3009 34.6732 22.671C34.6478 23.0408 34.3265 23.3182 33.958 23.2952C33.9114 23.2921 29.3506 23.0217 27.7285 25.6645C27.6018 25.8711 27.3812 25.9849 27.1555 25.9849Z" fill="#FFD064"/>
<path d="M37.2797 51.7223C48.3104 51.7223 54.4098 35.5423 36.9905 23.0456C36.5572 22.7347 36.2999 22.2342 36.3057 21.7009C36.3105 21.2603 36.4501 20.8324 36.7028 20.4714C37.5183 19.3069 38.6922 17.3148 39.3961 15.7102C39.5647 15.326 39.3234 14.9127 38.8725 14.9127C37.8262 14.9128 37.8262 14.228 36.7799 14.228C35.7336 14.228 35.7336 14.9128 34.6872 14.9128C33.7955 14.9128 33.4297 14.1456 32.9962 14.7036C31.732 16.3307 36.0622 22.0527 36.0622 22.0527C16.9381 34.6248 23.1044 51.7224 34.3955 51.7224H37.2797V51.7223Z" fill="#FFF1C0"/>
<path d="M41.6171 22.0533C41.6171 22.0533 46.0115 16.3499 44.7479 14.7138C44.3172 14.1562 43.95 14.9135 43.0593 14.9135C42.0128 14.9134 42.0128 14.2288 40.9663 14.2288C39.9199 14.2288 39.9199 14.9134 38.8736 14.9134C38.822 14.9134 38.775 14.9105 38.7283 14.9073C38.3079 16.7095 36.4132 19.5172 35.329 21.0205C35.756 21.6471 36.0634 22.0533 36.0634 22.0533C35.8083 22.221 35.5586 22.3896 35.3125 22.5589C53.5843 35.1178 47.4705 51.723 36.2958 51.723H43.3515C54.6768 51.7231 60.8049 34.6672 41.6171 22.0533Z" fill="#FFD08A"/>
<path d="M42.4338 24.0813C39.8804 24.7262 37.3577 24.7262 34.8038 24.0813C33.915 23.8568 33.4111 22.8573 33.7309 21.9487C33.7345 21.9385 33.738 21.9283 33.7416 21.9182C34.0098 21.1564 34.7704 20.7289 35.5159 20.9161C37.6068 21.441 39.6302 21.4412 41.7216 20.9161C42.4671 20.7289 43.2277 21.1564 43.4959 21.9182C43.4995 21.9283 43.5031 21.9385 43.5066 21.9487C43.8266 22.8573 43.3227 23.8568 42.4338 24.0813Z" fill="#FFE07D"/>
<path d="M18.4224 54.642L28.1469 58.2616C28.9728 58.569 29.847 58.7265 30.7282 58.7265H40.7501C42.1526 58.7265 43.5262 58.3279 44.7109 57.5772L57.2593 49.6259C58.0872 48.8908 58.2406 47.6554 57.6178 46.74C56.9363 45.7385 55.809 45.5644 54.5684 46.151L42.3514 51.5302L42.3658 49.5481C42.2041 47.9211 40.9514 46.6154 39.3326 46.3864L31.8928 45.5298C30.1765 45.287 29.319 44.7118 27.8228 43.8366C25.7802 42.6417 23.4563 42.012 21.0899 42.012H18.4224V54.642Z" fill="#FFDDCE"/>
<path d="M27.5568 56.333C28.4251 56.6561 29.3441 56.8217 30.2705 56.8217H40.8061C41.9278 56.8217 43.0316 56.5786 44.044 56.1151L51.411 51.4469C52.0955 51.0132 52.53 50.2582 52.5077 49.4482C52.4959 49.0186 52.3646 48.5886 52.1074 48.2106C52.1074 48.2106 51.8831 47.8263 51.6526 47.4351L42.3519 51.5302L42.3663 49.5481C42.2045 47.9211 40.9518 46.6154 39.3331 46.3864L31.8933 45.5298C30.177 45.287 29.3195 44.7118 27.8233 43.8366C25.7807 42.6417 23.4568 42.012 21.0904 42.012H18.4229V52.9332L27.5568 56.333Z" fill="#D3FDE5"/>
<path d="M57.6182 46.7429C56.9367 45.7414 55.8094 45.5673 54.5688 46.1539L51.2084 47.6335C51.3712 47.8911 51.5006 48.0967 51.5006 48.0967C52.1235 49.0121 51.97 50.2474 51.1421 50.9826L43.8304 55.6157C42.8674 56.0565 41.8174 56.2878 40.7504 56.2878H30.7287C29.8474 56.2878 28.9733 56.1304 28.1474 55.8229L18.4229 52.2033V54.6448L28.1474 58.2645C28.9733 58.5719 29.8474 58.7294 30.7287 58.7294H38.9167H40.7507C42.1532 58.7294 43.5268 58.3308 44.7115 57.5801L57.2598 49.6288C58.0876 48.8936 58.2411 47.6582 57.6182 46.7429Z" fill="#BBF7D4"/>
<path d="M41.4549 47.5088L41.4546 47.5566L41.4861 47.5427C41.4759 47.5312 41.4653 47.5202 41.4549 47.5088Z" fill="#F5DBCC"/>
<path d="M42.3537 51.5274H34.7571C34.3862 51.5274 34.0854 51.2268 34.0854 50.8558C34.0854 50.4847 34.3861 50.1841 34.7571 50.1841H42.3635L42.3537 51.5274Z" fill="#BBF7D4"/>
<path d="M20.5134 56.5851C20.5134 57.2907 19.9415 57.8627 19.2359 57.8627H16.1526C15.447 57.8627 14.875 57.2907 14.875 56.5851V40.9419C14.875 40.2363 15.447 39.6643 16.1526 39.6643H19.2359C19.9415 39.6643 20.5134 40.2363 20.5134 40.9419V56.5851Z" fill="#28A766"/>
<path d="M34.5839 33.001V35.7694C34.5839 35.8383 34.6183 35.8728 34.6873 35.8728H35.2731C36.8966 35.8728 37.7084 35.3214 37.7084 34.2187C37.7084 33.7515 37.5322 33.4031 37.18 33.1734C36.8353 32.936 36.2763 32.8173 35.5028 32.8173C35.2118 32.8173 34.9362 32.8402 34.6758 32.8862C34.6145 32.9015 34.5839 32.9398 34.5839 33.001ZM34.4001 40.123C34.2776 40.2455 34.1282 40.3068 33.9521 40.3068C33.776 40.3068 33.6266 40.2455 33.5041 40.123C33.3816 40.0005 33.3203 39.8511 33.3203 39.675V32.6335C33.3203 32.442 33.3816 32.2774 33.5041 32.1395C33.6266 31.994 33.7836 31.9136 33.9751 31.8983C34.5418 31.837 35.0893 31.8064 35.6177 31.8064C36.7205 31.8064 37.5514 32.0093 38.1104 32.4152C38.6694 32.8211 38.949 33.3839 38.949 34.1038C38.949 34.6858 38.7996 35.1836 38.501 35.5971C38.21 36.003 37.8079 36.2863 37.2948 36.4472C37.2872 36.4472 37.2833 36.451 37.2833 36.4586C37.2833 36.474 37.2872 36.4816 37.2948 36.4816C37.6241 36.7037 37.9266 37.1555 38.2023 37.8371L38.9375 39.698C38.9987 39.8435 38.9834 39.9813 38.8915 40.1115C38.7996 40.2417 38.6771 40.3068 38.5239 40.3068C38.3248 40.3068 38.1449 40.2532 37.984 40.146C37.8232 40.0311 37.7084 39.8818 37.6394 39.698L36.9157 37.8371C36.7549 37.4236 36.575 37.1593 36.3759 37.0445C36.1844 36.9219 35.8168 36.8607 35.2731 36.8607H34.6873C34.6183 36.8607 34.5839 36.8951 34.5839 36.9641V39.675C34.5839 39.8511 34.5226 40.0005 34.4001 40.123Z" fill="#28A766"/>
<path d="M41.6623 33.001V36.0221C41.6623 36.0834 41.6968 36.1217 41.7657 36.137C42.1563 36.1906 42.5047 36.2174 42.811 36.2174C43.4849 36.2174 44.0018 36.0719 44.3618 35.7809C44.7217 35.4822 44.9017 35.0572 44.9017 34.5058C44.9017 33.9545 44.7255 33.5371 44.3732 33.2538C44.021 32.9628 43.5002 32.8173 42.811 32.8173C42.4434 32.8173 42.095 32.8402 41.7657 32.8862C41.6968 32.9015 41.6623 32.9398 41.6623 33.001ZM41.4785 40.123C41.356 40.2455 41.2067 40.3068 41.0305 40.3068C40.8544 40.3068 40.7051 40.2455 40.5825 40.123C40.46 40.0005 40.3987 39.8511 40.3987 39.675V32.6335C40.3987 32.4497 40.46 32.285 40.5825 32.1395C40.7051 31.994 40.8582 31.9136 41.042 31.8983C41.6929 31.837 42.3209 31.8064 42.9259 31.8064C43.9827 31.8064 44.783 32.0323 45.3267 32.4841C45.8704 32.9283 46.1422 33.5639 46.1422 34.391C46.1422 36.2672 45.0701 37.2053 42.9259 37.2053C42.4741 37.2053 42.0835 37.19 41.7542 37.1593C41.6929 37.1593 41.6623 37.19 41.6623 37.2512V39.675C41.6623 39.8511 41.601 40.0005 41.4785 40.123Z" fill="#28A766"/>
<path fill-rule="evenodd" clip-rule="evenodd" d="M36.9988 33.4394L36.9988 33.4393C36.7369 33.2589 36.2601 33.14 35.5042 33.14C35.2951 33.14 35.0961 33.1526 34.9068 33.1773V35.5522H35.2744C36.0598 35.5522 36.5922 35.417 36.9201 35.1943C37.2259 34.9866 37.388 34.68 37.388 34.2198C37.388 33.8471 37.2555 33.6068 37.0056 33.4438L36.9988 33.4394ZM34.6771 32.8873C34.9375 32.8413 35.2132 32.8183 35.5042 32.8183C36.2776 32.8183 36.8367 32.937 37.1813 33.1744C37.5335 33.4042 37.7097 33.7526 37.7097 34.2198C37.7097 35.3225 36.8979 35.8739 35.2744 35.8739H34.6886C34.6197 35.8739 34.5852 35.8394 34.5852 35.7705V33.0021C34.5852 32.9409 34.6158 32.9026 34.6771 32.8873ZM38.2036 37.8382L38.9388 39.6991C39.0001 39.8446 38.9847 39.9824 38.8928 40.1126C38.8009 40.2428 38.6784 40.3079 38.5253 40.3079C38.3261 40.3079 38.1462 40.2543 37.9854 40.1471C37.8245 40.0322 37.7097 39.8829 37.6408 39.6991L36.9171 37.8382C36.7563 37.4246 36.5763 37.1604 36.3772 37.0456C36.1857 36.923 35.8181 36.8618 35.2744 36.8618H34.6886C34.6197 36.8618 34.5852 36.8962 34.5852 36.9651V39.6761C34.5852 39.8522 34.5239 40.0016 34.4014 40.1241C34.2789 40.2466 34.1296 40.3079 33.9534 40.3079C33.7773 40.3079 33.628 40.2466 33.5054 40.1241C33.3829 40.0016 33.3216 39.8522 33.3216 39.6761V32.6345C33.3216 32.4431 33.3829 32.2784 33.5054 32.1406C33.628 31.9951 33.7849 31.9147 33.9764 31.8994C34.5431 31.8381 35.0906 31.8075 35.619 31.8075C36.7218 31.8075 37.5527 32.0104 38.1117 32.4163C38.6708 32.8222 38.9503 33.385 38.9503 34.1049C38.9503 34.6869 38.8009 35.1847 38.5023 35.5982C38.2752 35.9149 37.9806 36.157 37.6183 36.3245C37.6054 36.3304 37.5925 36.3363 37.5795 36.342C37.4982 36.3779 37.4137 36.4102 37.3258 36.4388C37.3159 36.442 37.3061 36.4451 37.2961 36.4482C37.2885 36.4482 37.2847 36.4521 37.2847 36.4597C37.2847 36.475 37.2885 36.4827 37.2961 36.4827C37.3007 36.4858 37.3053 36.4889 37.3099 36.4921C37.3812 36.5417 37.4513 36.6021 37.52 36.6734C37.5291 36.6828 37.5382 36.6924 37.5472 36.7021C37.7807 36.9549 37.9995 37.3336 38.2036 37.8382ZM37.8559 36.5663C38.0997 36.857 38.3121 37.2487 38.5018 37.7176L38.5028 37.72L38.5028 37.72L39.2368 39.5779C39.3398 39.8257 39.31 40.0793 39.1556 40.2981C39.0063 40.5095 38.7878 40.6295 38.5253 40.6295C38.2647 40.6295 38.0223 40.5582 37.807 40.4147L37.7983 40.4089L37.7984 40.4088C37.5865 40.2574 37.432 40.0571 37.3403 39.8139L36.6173 37.9547C36.4618 37.555 36.3153 37.3812 36.2165 37.3242L36.21 37.3205L36.2038 37.3165C36.1608 37.2889 36.0699 37.2525 35.905 37.225C35.7447 37.1982 35.5358 37.1834 35.2744 37.1834H34.9068V39.6761C34.9068 39.9359 34.8128 40.1676 34.6288 40.3515C34.4449 40.5355 34.2133 40.6295 33.9534 40.6295C33.6936 40.6295 33.462 40.5355 33.278 40.3515C33.094 40.1676 33 39.9359 33 39.6761V32.6345C33 32.369 33.0871 32.1286 33.2622 31.9301C33.4393 31.7215 33.6732 31.6021 33.9459 31.5792C34.5218 31.517 35.0795 31.4858 35.619 31.4858C36.7523 31.4858 37.6627 31.6928 38.3007 32.156C38.9471 32.6253 39.2719 33.2871 39.2719 34.1049C39.2719 34.7444 39.1068 35.3103 38.7634 35.786C38.5241 36.1197 38.2197 36.3795 37.8559 36.5663ZM44.1697 33.5028L44.1697 33.5028C43.8981 33.2784 43.4633 33.14 42.8123 33.14C42.5229 33.14 42.2472 33.1548 41.9853 33.184V35.8419C42.2937 35.8789 42.5691 35.8969 42.8123 35.8969C43.444 35.8969 43.8776 35.7601 44.1593 35.5332C44.4311 35.3068 44.5813 34.9807 44.5813 34.5069C44.5813 34.0293 44.4327 33.7143 44.173 33.5055L44.1697 33.5028ZM44.3631 35.782C44.0032 36.073 43.4862 36.2185 42.8123 36.2185C42.506 36.2185 42.1576 36.1917 41.767 36.1381C41.6981 36.1228 41.6636 36.0845 41.6636 36.0232V33.0021C41.6636 32.9409 41.6981 32.9026 41.767 32.8873C42.0963 32.8413 42.4448 32.8183 42.8123 32.8183C43.5016 32.8183 44.0223 32.9638 44.3746 33.2548C44.7268 33.5382 44.903 33.9555 44.903 34.5069C44.903 35.0583 44.723 35.4833 44.3631 35.782ZM41.7073 40.3515C41.5233 40.5355 41.2917 40.6295 41.0318 40.6295C40.772 40.6295 40.5404 40.5355 40.3564 40.3515C40.1725 40.1676 40.0784 39.9359 40.0784 39.6761V32.6345C40.0784 32.3721 40.1683 32.1347 40.3378 31.9334C40.5131 31.7252 40.7436 31.6021 41.0148 31.579C41.6744 31.517 42.3119 31.4858 42.9272 31.4858C44.0227 31.4858 44.9085 31.719 45.5325 32.237C46.164 32.7533 46.4652 33.4881 46.4652 34.3921C46.4652 35.3917 46.1776 36.1968 45.5513 36.7449C44.9332 37.2857 44.0391 37.528 42.9272 37.528C42.5801 37.528 42.2659 37.5191 41.9853 37.501V39.6761C41.9853 39.9359 41.8912 40.1676 41.7073 40.3515ZM41.7555 37.1604C42.0848 37.1911 42.4754 37.2064 42.9272 37.2064C45.0715 37.2064 46.1436 36.2683 46.1436 34.3921C46.1436 33.565 45.8717 32.9294 45.328 32.4852C44.7843 32.0334 43.984 31.8075 42.9272 31.8075C42.3222 31.8075 41.6943 31.8381 41.0433 31.8994C40.8595 31.9147 40.7064 31.9951 40.5839 32.1406C40.4613 32.2861 40.4001 32.4507 40.4001 32.6345V39.6761C40.4001 39.8522 40.4613 40.0016 40.5839 40.1241C40.7064 40.2466 40.8557 40.3079 41.0318 40.3079C41.208 40.3079 41.3573 40.2466 41.4798 40.1241C41.6024 40.0016 41.6636 39.8522 41.6636 39.6761V37.2523C41.6636 37.1911 41.6943 37.1604 41.7555 37.1604Z" fill="#28A766"/>
</svg>
