<svg width="118" height="118" viewBox="0 0 118 118" fill="none" xmlns="http://www.w3.org/2000/svg">
<rect width="118" height="118" rx="24" fill="white"/>
<path d="M91.7952 42.3684H72.707V76.9649H103.982V61.393L100.334 48.787C99.2346 44.9855 95.7527 42.3684 91.7952 42.3684Z" fill="#63CF98"/>
<path d="M92.2001 42.3672H73.7461V75.3713H103.981V60.5162L100.455 48.4903C99.3923 44.8638 96.026 42.3672 92.2001 42.3672Z" fill="#ADF3CB"/>
<path d="M99.4152 61.2347L96.1646 49.9978C95.6042 48.0662 93.8074 46.7144 91.7949 46.7144H77.0513V61.2347H99.4152Z" fill="#84DBFF"/>
<path d="M99.4189 61.2283H77.0435V46.708L99.4189 61.2283Z" fill="#7FE9B3"/>
<path d="M99.4152 61.2347L96.1646 49.9978C95.6042 48.0662 93.8074 46.7144 91.7949 46.7144H77.0513L99.4152 61.2347Z" fill="#F2F2F2"/>
<path d="M105.445 76.391V83.4901H13.0078V76.9617H22.6559C24.909 72.9176 29.242 70.183 34.2105 70.183C39.1597 70.183 43.4926 72.9176 45.7651 76.9617H76.8085C79.0616 72.9176 83.3735 70.183 88.342 70.183C93.3104 70.183 97.6241 72.3469 99.8966 76.391H105.445Z" fill="#63CF98"/>
<path d="M105 76.3715V81.8999H14.7227V76.3715H23.3707C25.6239 72.3274 29.9569 69.5928 34.9253 69.5928C39.8745 69.5928 44.2075 72.3274 46.4799 76.3715H77.1623C78.627 72.2106 84.0883 69.5928 89.0568 69.5928C94.0253 69.5928 98.3389 72.3274 100.611 76.3715H105Z" fill="#7FE9B3"/>
<path d="M18.7773 25H66.9291C70.1182 25 72.7064 27.5862 72.7064 30.7773V76.963H13V30.7773C13 27.5864 15.5862 25 18.7773 25Z" fill="#FFF1C0"/>
<path d="M18.7773 25H66.9291C70.1182 25 72.7064 27.5862 72.7064 30.7773V76.963H13V30.7773C13 27.5864 15.5862 25 18.7773 25Z" fill="#FFC670"/>
<path d="M20.4213 26.1117H65.7202C68.7203 26.1117 71.1552 28.5634 71.1552 31.5884V75.3713H14.9863V31.5884C14.9863 28.5636 17.4193 26.1117 20.4213 26.1117Z" fill="#E8AB4F"/>
<path d="M21.062 26.1117H65.7875C68.7496 26.1117 71.1537 28.5634 71.1537 31.5884V75.3713H15.6958V31.5884C15.6958 28.5636 18.098 26.1117 21.062 26.1117Z" fill="#FFF1C0"/>
<path d="M52.1317 25.0103V40.2757L49.8977 38.0419L47.5561 40.3836L45.2163 38.0419L42.8765 40.3836L40.5327 38.0419L38.1622 40.3836L35.8242 38.0419L33.5635 40.3028V25.0103H52.1317Z" fill="#7FE9B3"/>
<path d="M97.568 83.449C97.568 88.5446 93.4373 92.6753 88.3417 92.6753C83.2461 92.6753 79.1191 88.5446 79.1191 83.449C79.1191 78.3534 83.2479 74.2227 88.3417 74.2227C93.4393 74.2227 97.568 78.3534 97.568 83.449Z" fill="#3DA971"/>
<path d="M97.4929 83.2264C97.4929 88.1621 93.5718 92.1632 88.7349 92.1632C83.898 92.1632 79.9805 88.1621 79.9805 83.2264C79.9805 78.2908 83.8997 74.2897 88.7349 74.2897C93.5737 74.2897 97.4929 78.2908 97.4929 83.2264Z" fill="#4DC085"/>
<path d="M92.05 83.448C92.05 85.4952 90.3899 87.1533 88.3448 87.1533C86.2976 87.1533 84.6357 85.4952 84.6357 83.448C84.6357 81.4009 86.2958 79.7428 88.3448 79.7428C90.3899 79.741 92.05 81.4011 92.05 83.448Z" fill="#ADF3CB"/>
<path d="M43.4293 83.449C43.4293 88.5446 39.2965 92.6753 34.2029 92.6753C29.1073 92.6753 24.9766 88.5446 24.9766 83.449C24.9766 78.3534 29.1073 74.2227 34.2029 74.2227C39.2965 74.2227 43.4293 78.3534 43.4293 83.449Z" fill="#3DA971"/>
<path d="M43.5123 83.2264C43.5123 88.1621 39.5497 92.1632 34.6658 92.1632C29.78 92.1632 25.8193 88.1621 25.8193 83.2264C25.8193 78.2908 29.78 74.2897 34.6658 74.2897C39.5497 74.2897 43.5123 78.2908 43.5123 83.2264Z" fill="#4DC086"/>
<path d="M37.9074 83.448C37.9074 85.4952 36.2493 87.1533 34.2022 87.1533C32.155 87.1533 30.4951 85.4952 30.4951 83.448C30.4951 81.4009 32.1552 79.7428 34.2022 79.7428C36.2491 79.7428 37.9074 81.4011 37.9074 83.448Z" fill="#ADF3CB"/>
<rect x="17.6938" y="62.9143" width="12.8184" height="9.56865" rx="2.16649" fill="#FFC670"/>
</svg>
