<svg width="118" height="118" viewBox="0 0 118 118" fill="none" xmlns="http://www.w3.org/2000/svg">
<rect width="118" height="118" rx="24" fill="white"/>
<path d="M52.9247 42.2434C52.5972 42.2434 52.2742 42.0931 52.0651 41.809C51.0955 40.4916 49.3702 38.9803 46.6552 39.2702C43.4589 39.6107 41.0852 38.5935 39.6566 37.6803C39.1605 37.3632 39.0155 36.7039 39.3324 36.2078C39.6494 35.7115 40.309 35.5666 40.8049 35.8836C41.9461 36.6128 43.8482 37.4253 46.4294 37.1498C50.3471 36.7339 52.7179 39.0982 53.7826 40.5451C54.1316 41.0193 54.03 41.6868 53.5557 42.0358C53.3654 42.1758 53.1442 42.2434 52.9247 42.2434Z" fill="#FFD064"/>
<path d="M41.7651 47.9075C41.5748 47.9075 41.3824 47.8567 41.2082 47.7497C40.7063 47.4417 40.5494 46.7852 40.8574 46.2833C42.2241 44.0569 44.7286 42.5267 48.1003 41.8582C50.5587 41.3709 52.6214 41.5044 52.7078 41.5104C53.2953 41.5507 53.7388 42.0596 53.6986 42.647C53.6583 43.2341 53.1482 43.6743 52.5632 43.6379C52.4892 43.6329 45.2495 43.2037 42.6747 47.3988C42.4735 47.7268 42.1233 47.9075 41.7651 47.9075Z" fill="#FFD064"/>
<path d="M57.8351 88.7604C75.3452 88.7604 85.0273 63.0764 57.3761 43.2393C56.6883 42.7458 56.2798 41.9514 56.2891 41.1048C56.2967 40.4053 56.5183 39.7262 56.9195 39.153C58.214 37.3045 60.0773 34.1423 61.1947 31.5953C61.4623 30.9853 61.0793 30.3292 60.3635 30.3292C58.7026 30.3294 58.7026 29.2424 57.0418 29.2424C55.3809 29.2424 55.3809 30.3294 53.7199 30.3294C52.3045 30.3294 51.7238 29.1116 51.0357 29.9973C49.0288 32.5802 55.9025 41.6632 55.9025 41.6632C25.5453 61.6199 35.3335 88.7605 53.2569 88.7605H57.8351V88.7604Z" fill="#FFF1C0"/>
<path d="M64.7207 41.6628C64.7207 41.6628 71.6963 32.6092 69.6905 30.0121C69.0068 29.127 68.4239 30.3291 67.01 30.3291C65.3489 30.329 65.3489 29.2422 63.6877 29.2422C62.0267 29.2422 62.0267 30.329 60.3657 30.329C60.2838 30.329 60.2092 30.3244 60.1351 30.3193C59.4677 33.1801 56.4602 37.637 54.7391 40.0233C55.4168 41.0179 55.9048 41.6627 55.9048 41.6627C55.4999 41.9289 55.1036 42.1966 54.7129 42.4653C83.7173 62.4012 74.0123 88.76 56.2737 88.76H67.4738C85.4515 88.7601 95.1791 61.6859 64.7207 41.6628Z" fill="#FFD08A"/>
<path d="M66.0181 44.8835C61.9648 45.9072 57.9603 45.9072 53.9063 44.8835C52.4954 44.5272 51.6955 42.9405 52.2032 41.4983C52.2089 41.4821 52.2145 41.466 52.2202 41.4498C52.6459 40.2406 53.8533 39.5621 55.0367 39.8592C58.3557 40.6925 61.5676 40.6927 64.8876 39.8592C66.0709 39.5621 67.2783 40.2406 67.7041 41.4498C67.7097 41.466 67.7154 41.4821 67.7211 41.4983C68.2289 42.9405 67.429 44.5272 66.0181 44.8835Z" fill="#FFE07D"/>
<path d="M53.5556 59.0418V63.4362C53.5556 63.5456 53.6103 63.6003 53.7197 63.6003H54.6496C57.2268 63.6003 58.5153 62.7251 58.5153 60.9746C58.5153 60.2331 58.2357 59.68 57.6765 59.3153C57.1295 58.9384 56.2421 58.75 55.0143 58.75C54.5524 58.75 54.1148 58.7865 53.7015 58.8594C53.6042 58.8837 53.5556 58.9445 53.5556 59.0418ZM53.2638 70.347C53.0693 70.5415 52.8323 70.6388 52.5527 70.6388C52.2731 70.6388 52.0361 70.5415 51.8416 70.347C51.6471 70.1525 51.5498 69.9155 51.5498 69.6359V58.4583C51.5498 58.1544 51.6471 57.893 51.8416 57.6742C52.0361 57.4432 52.2853 57.3156 52.5892 57.2913C53.4887 57.194 54.3579 57.1454 55.1967 57.1454C56.9472 57.1454 58.2661 57.4675 59.1535 58.1118C60.0409 58.7561 60.4846 59.6496 60.4846 60.7923C60.4846 61.7161 60.2476 62.5063 59.7735 63.1627C59.3116 63.807 58.6733 64.2568 57.8589 64.5121C57.8467 64.5121 57.8406 64.5181 57.8406 64.5303C57.8406 64.5546 57.8467 64.5668 57.8589 64.5668C58.3816 64.9193 58.8618 65.6365 59.2994 66.7184L60.4664 69.6724C60.5636 69.9033 60.5393 70.1222 60.3935 70.3288C60.2476 70.5355 60.0531 70.6388 59.81 70.6388C59.4939 70.6388 59.2082 70.5537 58.9529 70.3835C58.6977 70.2012 58.5153 69.9641 58.4059 69.6724L57.2571 66.7184C57.0019 66.062 56.7162 65.6426 56.4001 65.4602C56.0962 65.2657 55.5127 65.1685 54.6496 65.1685H53.7197C53.6103 65.1685 53.5556 65.2232 53.5556 65.3326V69.6359C53.5556 69.9155 53.4583 70.1525 53.2638 70.347Z" fill="#28A766"/>
<path d="M64.7918 59.0418V63.8374C64.7918 63.9346 64.8465 63.9954 64.9559 64.0197C65.5758 64.1048 66.129 64.1474 66.6152 64.1474C67.685 64.1474 68.5055 63.9164 69.0768 63.4545C69.6482 62.9804 69.9339 62.3057 69.9339 61.4305C69.9339 60.5552 69.6543 59.8927 69.0951 59.4429C68.5359 58.981 67.7093 58.75 66.6152 58.75C66.0317 58.75 65.4786 58.7865 64.9559 58.8594C64.8465 58.8837 64.7918 58.9445 64.7918 59.0418ZM64.5 70.347C64.3055 70.5415 64.0685 70.6388 63.7889 70.6388C63.5093 70.6388 63.2722 70.5415 63.0777 70.347C62.8832 70.1525 62.786 69.9155 62.786 69.6359V58.4583C62.786 58.1665 62.8832 57.9051 63.0777 57.6742C63.2722 57.4432 63.5154 57.3156 63.8071 57.2913C64.8404 57.194 65.8372 57.1454 66.7975 57.1454C68.4751 57.1454 69.7454 57.504 70.6085 58.2212C71.4716 58.9263 71.9032 59.9352 71.9032 61.2481C71.9032 64.2264 70.2013 65.7155 66.7975 65.7155C66.0803 65.7155 65.4604 65.6912 64.9376 65.6426C64.8404 65.6426 64.7918 65.6912 64.7918 65.7885V69.6359C64.7918 69.9155 64.6945 70.1525 64.5 70.347Z" fill="#28A766"/>
<path fill-rule="evenodd" clip-rule="evenodd" d="M57.3896 59.738L57.3896 59.7379C56.9739 59.4515 56.217 59.2627 55.0171 59.2627C54.6852 59.2627 54.3693 59.2827 54.0689 59.322V63.0919H54.6524C55.8991 63.0919 56.7442 62.8773 57.2648 62.5237C57.75 62.1941 58.0075 61.7073 58.0075 60.9767C58.0075 60.3852 57.7971 60.0038 57.4004 59.7451L57.3896 59.738ZM53.7042 58.8616C54.1175 58.7886 54.5551 58.7521 55.0171 58.7521C56.2449 58.7521 57.1323 58.9406 57.6793 59.3174C58.2385 59.6821 58.5181 60.2352 58.5181 60.9767C58.5181 62.7272 57.2295 63.6025 54.6524 63.6025H53.7224C53.613 63.6025 53.5583 63.5478 53.5583 63.4384V59.0439C53.5583 58.9466 53.607 58.8859 53.7042 58.8616ZM59.3021 66.7205L60.4691 69.6745C60.5664 69.9055 60.5421 70.1243 60.3962 70.3309C60.2503 70.5376 60.0558 70.6409 59.8127 70.6409C59.4966 70.6409 59.211 70.5558 58.9557 70.3856C58.7004 70.2033 58.5181 69.9663 58.4087 69.6745L57.2599 66.7205C57.0046 66.0641 56.7189 65.6447 56.4029 65.4624C56.099 65.2679 55.5155 65.1706 54.6524 65.1706H53.7224C53.613 65.1706 53.5583 65.2253 53.5583 65.3347V69.638C53.5583 69.9176 53.4611 70.1547 53.2666 70.3492C53.0721 70.5437 52.835 70.6409 52.5554 70.6409C52.2758 70.6409 52.0388 70.5437 51.8443 70.3492C51.6498 70.1547 51.5526 69.9176 51.5526 69.638V58.4604C51.5526 58.1565 51.6498 57.8951 51.8443 57.6763C52.0388 57.4454 52.288 57.3177 52.5919 57.2934C53.4915 57.1961 54.3606 57.1475 55.1994 57.1475C56.9499 57.1475 58.2689 57.4697 59.1563 58.1139C60.0437 58.7582 60.4874 59.6517 60.4874 60.7944C60.4874 61.7183 60.2503 62.5084 59.7762 63.1649C59.4158 63.6676 58.9481 64.0519 58.373 64.3177C58.3526 64.3272 58.3321 64.3365 58.3114 64.3456C58.1824 64.4026 58.0482 64.4538 57.9087 64.4992C57.893 64.5043 57.8774 64.5093 57.8616 64.5142C57.8495 64.5142 57.8434 64.5203 57.8434 64.5324C57.8434 64.5567 57.8495 64.5689 57.8616 64.5689C57.8689 64.5738 57.8762 64.5788 57.8835 64.5838C57.9967 64.6626 58.1078 64.7585 58.217 64.8715C58.2314 64.8865 58.2458 64.9017 58.2602 64.9172C58.6308 65.3184 58.9781 65.9195 59.3021 66.7205ZM58.7502 64.7017C59.1372 65.163 59.4744 65.7848 59.7755 66.5291L59.777 66.5329L59.777 66.533L60.9421 69.4822C61.1056 69.8756 61.0584 70.2781 60.8133 70.6254C60.5764 70.9611 60.2295 71.1515 59.8127 71.1515C59.3991 71.1515 59.0143 71.0383 58.6725 70.8105L58.6588 70.8013L58.6589 70.8011C58.3226 70.5609 58.0772 70.2429 57.9318 69.8569L56.7841 66.9056C56.5373 66.271 56.3047 65.9952 56.1477 65.9046L56.1376 65.8987L56.1277 65.8924C56.0593 65.8487 55.9152 65.7908 55.6534 65.7472C55.3988 65.7048 55.0673 65.6812 54.6524 65.6812H54.0689V69.638C54.0689 70.0505 53.9196 70.4182 53.6276 70.7102C53.3356 71.0022 52.9679 71.1515 52.5554 71.1515C52.1429 71.1515 51.7753 71.0022 51.4833 70.7102C51.1913 70.4182 51.042 70.0505 51.042 69.638V58.4604C51.042 58.0389 51.1802 57.6573 51.4582 57.3422C51.7393 57.011 52.1107 56.8216 52.5436 56.7851C53.4576 56.6865 54.343 56.637 55.1994 56.637C56.9983 56.637 58.4435 56.9655 59.4562 57.7008C60.4824 58.4458 60.9979 59.4963 60.9979 60.7944C60.9979 61.8095 60.7359 62.7078 60.1907 63.463C59.8108 63.9926 59.3277 64.4051 58.7502 64.7017ZM68.7726 59.8387L68.7727 59.8387C68.3414 59.4824 67.6512 59.2627 66.618 59.2627C66.1584 59.2627 65.7209 59.2862 65.3051 59.3326V63.5517C65.7946 63.6104 66.2318 63.6389 66.618 63.6389C67.6207 63.6389 68.3089 63.4219 68.756 63.0616C69.1875 62.7024 69.426 62.1847 69.426 61.4326C69.426 60.6745 69.1901 60.1745 68.7778 59.8429L68.7726 59.8387ZM69.0796 63.4566C68.5082 63.9185 67.6877 64.1495 66.618 64.1495C66.1317 64.1495 65.5786 64.107 64.9586 64.0219C64.8492 63.9976 64.7945 63.9368 64.7945 63.8395V59.0439C64.7945 58.9466 64.8492 58.8859 64.9586 58.8616C65.4813 58.7886 66.0345 58.7521 66.618 58.7521C67.712 58.7521 68.5386 58.9831 69.0978 59.445C69.657 59.8948 69.9366 60.5573 69.9366 61.4326C69.9366 62.3078 69.6509 62.9825 69.0796 63.4566ZM64.8638 70.7102C64.5718 71.0022 64.2041 71.1515 63.7916 71.1515C63.3791 71.1515 63.0115 71.0022 62.7195 70.7102C62.4275 70.4182 62.2782 70.0505 62.2782 69.638V58.4604C62.2782 58.0438 62.4209 57.667 62.69 57.3474C62.9682 57.017 63.334 56.8215 63.7645 56.7849C64.8115 56.6864 65.8235 56.637 66.8003 56.637C68.5392 56.637 69.9454 57.0071 70.9359 57.8293C71.9383 58.649 72.4165 59.8153 72.4165 61.2502C72.4165 62.8371 71.9599 64.1151 70.9657 64.985C69.9845 65.8436 68.5654 66.2282 66.8003 66.2282C66.2493 66.2282 65.7505 66.2141 65.3051 66.1853V69.638C65.3051 70.0505 65.1558 70.4182 64.8638 70.7102ZM64.9404 65.6447C65.4631 65.6933 66.0831 65.7177 66.8003 65.7177C70.204 65.7177 71.9059 64.2285 71.9059 61.2502C71.9059 59.9374 71.4744 58.9284 70.6113 58.2233C69.7482 57.5061 68.4779 57.1475 66.8003 57.1475C65.84 57.1475 64.8431 57.1961 63.8099 57.2934C63.5181 57.3177 63.275 57.4454 63.0805 57.6763C62.886 57.9073 62.7887 58.1686 62.7887 58.4604V69.638C62.7887 69.9176 62.886 70.1547 63.0805 70.3492C63.275 70.5437 63.512 70.6409 63.7916 70.6409C64.0712 70.6409 64.3083 70.5437 64.5028 70.3492C64.6973 70.1547 64.7945 69.9176 64.7945 69.638V65.7906C64.7945 65.6933 64.8431 65.6447 64.9404 65.6447Z" fill="#28A766"/>
<path d="M21.2409 25.2354L22.706 25.3311C24.9597 21.0111 28.6152 17.6297 33.1492 15.7134C34.9976 14.9321 37.1294 15.7972 37.9107 17.6458C38.692 19.4942 37.8269 21.626 35.9783 22.4073C34.0897 23.2056 32.4349 24.3933 31.1003 25.8794L31.5143 25.9065C33.4095 26.0304 34.4599 28.1593 33.405 29.7386L27.6877 38.2986C26.6329 39.8776 24.2644 39.723 23.424 38.0203L18.868 28.789C18.0274 27.086 19.3459 25.1116 21.2409 25.2354Z" fill="#4ED08E"/>
<path d="M36.0659 15.751C35.1745 15.3468 34.1226 15.3025 33.1495 15.7137C28.6151 17.6299 24.9605 21.0106 22.7062 25.3315L21.2415 25.2355C19.3455 25.1108 18.0271 27.0857 18.8683 28.7883L23.4242 38.0207C24.1393 39.4696 25.9608 39.7978 27.1375 38.8891C26.8495 38.6712 26.6044 38.3804 26.4266 38.0207L21.8707 28.7883C21.0295 27.0857 22.3478 25.111 24.2439 25.2355L25.7086 25.3315C27.9487 21.0379 31.5716 17.6729 36.0659 15.751Z" fill="#28A766"/>
<path d="M88.3429 15.2748L78.8268 19.9715C77.871 20.4429 77.3878 21.3824 77.4115 22.3161C77.4293 23.0947 77.7985 23.8719 78.5402 24.3668L87.3649 30.2602C88.9916 31.3477 91.1871 30.2647 91.3141 28.3115L91.3421 27.8845C92.8742 29.26 94.0991 30.9665 94.9219 32.9138C95.7271 34.8197 97.9256 35.7106 99.8299 34.9053C100.057 34.8093 100.272 34.6926 100.47 34.5582C101.925 33.5786 102.532 31.6757 101.823 29.9973C99.8476 25.3227 96.3608 21.5538 91.9078 19.2313L92.0067 17.7199C92.134 15.7667 90.0982 14.4074 88.3429 15.2748Z" fill="#D3FDE5"/>
<path d="M78.1231 20.4803C77.6355 20.9783 77.3947 21.6475 77.4109 22.3138C77.4287 23.0924 77.798 23.8696 78.5396 24.366L87.3644 30.2579C88.991 31.3469 91.1865 30.2624 91.3135 28.3106L91.3416 27.8822C92.8737 29.2577 94.0985 30.9642 94.9213 32.9113C95.7265 34.8187 97.925 35.7082 99.8294 34.9029C100.057 34.8069 100.271 34.6902 100.469 34.5572C101.924 33.5762 102.532 31.6748 101.822 29.9949C101.777 29.8855 101.729 29.7776 101.682 29.6698C101.4 30.2017 100.989 30.6686 100.469 31.0187C100.271 31.1531 100.057 31.2699 99.8294 31.3658C97.925 32.1711 95.7265 31.2802 94.9213 29.3743C94.0984 27.427 92.8737 25.7206 91.3416 24.345L91.3135 24.772C91.1865 26.7252 88.991 27.8081 87.3644 26.7207L78.5396 20.8273C78.3846 20.7226 78.2443 20.606 78.1231 20.4803Z" fill="#BBF6D4"/>
<path d="M99.4876 92.7685L98.0225 92.6728C95.7688 96.9928 92.1133 100.374 87.5793 102.291C85.7309 103.072 83.5991 102.207 82.8178 100.358C82.0365 98.5097 82.9016 96.3779 84.7502 95.5966C86.6388 94.7984 88.2937 93.6106 89.6282 92.1245L89.2142 92.0974C87.319 91.9735 86.2686 89.8446 87.3235 88.2654L93.0409 79.7053C94.0956 78.1263 96.4641 78.2809 97.3045 79.9836L101.861 89.2149C102.701 90.9179 101.383 92.8923 99.4876 92.7685Z" fill="#4ED08E"/>
<path d="M84.6626 102.253C85.554 102.657 86.6059 102.701 87.579 102.29C92.1135 100.374 95.768 96.9933 98.0224 92.6724L99.487 92.7684C101.383 92.8931 102.701 90.9182 101.86 89.2156L97.3043 79.9832C96.5893 78.5343 94.7677 78.2061 93.591 79.1148C93.8791 79.3327 94.1242 79.6235 94.3019 79.9832L98.8578 89.2156C99.699 90.9182 98.3807 92.8929 96.4846 92.7684L95.0199 92.6724C92.7799 96.966 89.1569 100.331 84.6626 102.253Z" fill="#28A766"/>
<path d="M32.3856 102.729L41.9017 98.0324C42.8575 97.561 43.3408 96.6215 43.317 95.6878C43.2993 94.9092 42.93 94.132 42.1883 93.6371L33.3636 87.7437C31.7369 86.6562 29.5414 87.7392 29.4144 89.6924L29.3864 90.1194C27.8543 88.7439 26.6294 87.0374 25.8066 85.0901C25.0015 83.1842 22.8029 82.2933 20.8986 83.0986C20.6711 83.1946 20.4569 83.3113 20.2589 83.4457C18.8036 84.4253 18.1965 86.3282 18.9056 88.0066C20.8809 92.6812 24.3677 96.4501 28.8207 98.7726L28.7218 100.284C28.5945 102.237 30.6303 103.596 32.3856 102.729Z" fill="#D3FDE5"/>
<path d="M42.6054 97.5236C43.093 97.0256 43.3338 96.3564 43.3176 95.6901C43.2998 94.9115 42.9306 94.1343 42.1889 93.6379L33.3641 87.746C31.7375 86.657 29.542 87.7415 29.415 89.6933L29.3869 90.1217C27.8549 88.7462 26.63 87.0397 25.8072 85.0926C25.002 83.1852 22.8035 82.2957 20.8991 83.101C20.6716 83.197 20.4574 83.3138 20.2594 83.4467C18.8042 84.4277 18.197 86.3292 18.9061 88.009C18.952 88.1184 18.9993 88.2263 19.0464 88.3342C19.3286 87.8022 19.7394 87.3353 20.2594 86.9852C20.4574 86.8508 20.6716 86.734 20.8991 86.6381C22.8035 85.8328 25.002 86.7237 25.8072 88.6296C26.6301 90.5769 27.8549 92.2833 29.3869 93.6589L29.415 93.2319C29.542 91.2787 31.7375 90.1958 33.3641 91.2832L42.1889 97.1766C42.3439 97.2813 42.4842 97.3979 42.6054 97.5236Z" fill="#BBF6D4"/>
</svg>
