<svg width="72" height="73" viewBox="0 0 72 73" fill="none" xmlns="http://www.w3.org/2000/svg">
<rect y="0.48584" width="72" height="72" rx="24" fill="white"/>
<path d="M10.776 56.4681C10.8295 56.2315 11.1666 56.2315 11.2201 56.4681L11.3961 57.2464C11.6092 58.1892 12.2637 58.9715 13.154 59.3478C13.2762 59.3994 13.2762 59.5725 13.154 59.6241C12.2637 60.0003 11.6092 60.7827 11.3961 61.7255L11.2201 62.5037C11.1666 62.7404 10.8295 62.7404 10.776 62.5037L10.6 61.7255C10.3869 60.7827 9.73242 60.0003 8.84205 59.6241C8.71993 59.5725 8.71993 59.3994 8.84205 59.3478C9.73242 58.9715 10.3869 58.1892 10.6 57.2464L10.776 56.4681Z" fill="#7FE9B3"/>
<path d="M60.7779 8.46813C60.8314 8.2315 61.1686 8.23151 61.2221 8.46813L61.398 9.24637C61.6112 10.1892 62.2656 10.9715 63.156 11.3478C63.2781 11.3994 63.2781 11.5725 63.156 11.6241C62.2656 12.0003 61.6112 12.7827 61.398 13.7255L61.2221 14.5037C61.1686 14.7404 60.8314 14.7404 60.7779 14.5037L60.602 13.7255C60.3888 12.7827 59.7344 12.0003 58.844 11.6241C58.7219 11.5725 58.7219 11.3994 58.844 11.3478C59.7344 10.9715 60.3888 10.1892 60.602 9.24637L60.7779 8.46813Z" fill="#7FE9B3"/>
<path d="M54.6325 30.3396V54.2229C54.6325 55.8313 53.3281 57.1357 51.7196 57.1357H19.6786C18.0702 57.1357 16.7658 55.8313 16.7658 54.2229C16.7658 31.6443 16.7639 35.8739 16.7722 30.3396H54.6325Z" fill="#FFC670"/>
<path d="M50.869 33.2854V51.9131C50.869 53.1676 49.8239 54.185 48.5352 54.185H22.8637C21.575 54.185 20.5299 53.1676 20.5299 51.9131C20.5299 34.303 20.5284 37.6018 20.535 33.2854H50.869Z" fill="#FFF1C0"/>
<path d="M43.2538 44.1233V53.6542V54.544V57.1399H28.5073V54.544V53.6542L28.5077 44.1233C28.5077 42.5148 29.8121 41.2104 31.4205 41.2104H40.341C41.9494 41.2104 43.2538 42.5148 43.2538 44.1233Z" fill="white"/>
<path d="M56.9992 30.6717C56.9992 33.5861 54.6359 35.9512 51.7198 35.9512C48.8042 35.9512 46.4403 33.5872 46.4403 30.6717C46.4403 33.5872 44.0763 35.9512 41.1608 35.9512C38.2452 35.9512 35.8813 33.5872 35.8813 30.6717C35.8813 33.5872 33.5174 35.9512 30.6018 35.9512C27.6863 35.9512 25.3223 33.5872 25.3223 30.6717C25.3178 33.5681 22.9338 35.9512 20.0428 35.9512C17.1554 35.9512 14.7679 33.5711 14.7634 30.6717C14.7634 26.0833 14.7508 26.3656 14.7952 26.155C14.8389 25.9483 14.5361 26.6802 19.1162 16.1094C19.3474 15.5769 19.8726 15.2319 20.4525 15.2319H51.3101C51.89 15.2319 52.4152 15.5769 52.6464 16.1094C57.2299 26.6881 56.9236 25.9481 56.9674 26.155C57.0117 26.3652 56.9992 26.0783 56.9992 30.6717Z" fill="#7FE9B3"/>
<path d="M56.9986 30.6737C56.9986 33.588 54.6353 35.9531 51.7191 35.9531C48.8035 35.9531 46.4396 33.5892 46.4396 30.6737C46.4396 33.5892 44.0757 35.9531 41.1601 35.9531C38.2446 35.9531 35.8806 33.5892 35.8806 30.6737C35.8806 33.5892 33.5167 35.9531 30.6012 35.9531C27.6856 35.9531 25.3217 33.5892 25.3217 30.6737C25.3171 33.5701 22.9332 35.9531 20.0422 35.9531C17.1548 35.9531 14.7672 33.5731 14.7627 30.6737V26.4592C14.7627 26.3572 14.7736 26.2562 14.7946 26.157H56.9667C57.011 26.3672 56.9986 26.0802 56.9986 30.6737Z" fill="#34C37A"/>
<circle cx="50" cy="49.4858" r="10" fill="#58DA98"/>
<circle cx="49.9999" cy="49.4858" r="7.77778" fill="#ADF3CB"/>
<path d="M46.6489 47.1936V49.1063C46.6489 49.1539 46.6727 49.1777 46.7203 49.1777H47.1251C48.2468 49.1777 48.8076 48.7967 48.8076 48.0348C48.8076 47.7121 48.6859 47.4713 48.4425 47.3126C48.2045 47.1486 47.8182 47.0666 47.2838 47.0666C47.0828 47.0666 46.8923 47.0824 46.7124 47.1142C46.6701 47.1248 46.6489 47.1512 46.6489 47.1936ZM46.5219 52.1142C46.4373 52.1989 46.3341 52.2412 46.2124 52.2412C46.0907 52.2412 45.9875 52.1989 45.9029 52.1142C45.8182 52.0295 45.7759 51.9264 45.7759 51.8047V46.9396C45.7759 46.8073 45.8182 46.6936 45.9029 46.5983C45.9875 46.4978 46.096 46.4422 46.2283 46.4317C46.6198 46.3893 46.9981 46.3682 47.3632 46.3682C48.1251 46.3682 48.6992 46.5084 49.0854 46.7888C49.4716 47.0692 49.6648 47.4581 49.6648 47.9555C49.6648 48.3576 49.5616 48.7015 49.3552 48.9872C49.1542 49.2676 48.8764 49.4634 48.5219 49.5745C48.5166 49.5745 48.514 49.5772 48.514 49.5825C48.514 49.593 48.5166 49.5983 48.5219 49.5983C48.7494 49.7518 48.9584 50.0639 49.1489 50.5348L49.6568 51.8205C49.6992 51.9211 49.6886 52.0163 49.6251 52.1063C49.5616 52.1962 49.4769 52.2412 49.3711 52.2412C49.2336 52.2412 49.1092 52.2041 48.9981 52.1301C48.887 52.0507 48.8076 51.9475 48.76 51.8205L48.26 50.5348C48.1489 50.2491 48.0246 50.0666 47.887 49.9872C47.7547 49.9026 47.5007 49.8602 47.1251 49.8602H46.7203C46.6727 49.8602 46.6489 49.884 46.6489 49.9317V51.8047C46.6489 51.9264 46.6066 52.0295 46.5219 52.1142Z" fill="#58DA98"/>
<path d="M51.5395 47.1936V49.2809C51.5395 49.3232 51.5633 49.3496 51.6109 49.3602C51.8807 49.3973 52.1215 49.4158 52.3331 49.4158C52.7987 49.4158 53.1559 49.3153 53.4045 49.1142C53.6532 48.9078 53.7776 48.6142 53.7776 48.2332C53.7776 47.8523 53.6559 47.5639 53.4125 47.3682C53.1691 47.1671 52.8093 47.0666 52.3331 47.0666C52.0791 47.0666 51.8384 47.0824 51.6109 47.1142C51.5633 47.1248 51.5395 47.1512 51.5395 47.1936ZM51.4125 52.1142C51.3278 52.1989 51.2246 52.2412 51.1029 52.2412C50.9813 52.2412 50.8781 52.1989 50.7934 52.1142C50.7088 52.0295 50.6664 51.9264 50.6664 51.8047V46.9396C50.6664 46.8126 50.7088 46.6989 50.7934 46.5983C50.8781 46.4978 50.9839 46.4422 51.1109 46.4317C51.5606 46.3893 51.9945 46.3682 52.4125 46.3682C53.1426 46.3682 53.6955 46.5242 54.0712 46.8364C54.4469 47.1433 54.6347 47.5824 54.6347 48.1539C54.6347 49.4502 53.894 50.0983 52.4125 50.0983C52.1003 50.0983 51.8305 50.0877 51.6029 50.0666C51.5606 50.0666 51.5395 50.0877 51.5395 50.1301V51.8047C51.5395 51.9264 51.4971 52.0295 51.4125 52.1142Z" fill="#58DA98"/>
<path fill-rule="evenodd" clip-rule="evenodd" d="M48.3194 47.5008L48.3195 47.5008C48.1385 47.3761 47.809 47.294 47.2868 47.294C47.1424 47.294 47.0049 47.3027 46.8741 47.3198V48.9606H47.1281C47.6707 48.9606 48.0385 48.8672 48.2651 48.7133C48.4763 48.5699 48.5884 48.358 48.5884 48.04C48.5884 47.7825 48.4968 47.6165 48.3241 47.5039L48.3194 47.5008ZM46.7154 47.1194C46.8953 47.0876 47.0857 47.0718 47.2868 47.0718C47.8212 47.0718 48.2074 47.1538 48.4455 47.3178C48.6889 47.4765 48.8106 47.7173 48.8106 48.04C48.8106 48.8019 48.2498 49.1829 47.1281 49.1829H46.7233C46.6757 49.1829 46.6519 49.1591 46.6519 49.1114V47.1987C46.6519 47.1564 46.673 47.13 46.7154 47.1194ZM49.1519 50.54L49.6598 51.8257C49.7021 51.9263 49.6916 52.0215 49.6281 52.1114C49.5646 52.2014 49.4799 52.2464 49.3741 52.2464C49.2365 52.2464 49.1122 52.2093 49.0011 52.1353C48.89 52.0559 48.8106 51.9527 48.763 51.8257L48.263 50.54C48.1519 50.2543 48.0275 50.0718 47.89 49.9924C47.7577 49.9077 47.5037 49.8654 47.1281 49.8654H46.7233C46.6757 49.8654 46.6519 49.8892 46.6519 49.9368V51.8099C46.6519 51.9315 46.6096 52.0347 46.5249 52.1194C46.4402 52.204 46.3371 52.2464 46.2154 52.2464C46.0937 52.2464 45.9905 52.204 45.9058 52.1194C45.8212 52.0347 45.7789 51.9315 45.7789 51.8099V46.9448C45.7789 46.8125 45.8212 46.6987 45.9058 46.6035C45.9905 46.503 46.099 46.4474 46.2312 46.4368C46.6228 46.3945 47.0011 46.3733 47.3662 46.3733C48.1281 46.3733 48.7021 46.5136 49.0884 46.794C49.4746 47.0744 49.6678 47.4633 49.6678 47.9606C49.6678 48.3628 49.5646 48.7067 49.3582 48.9924C49.2013 49.2112 48.9978 49.3785 48.7475 49.4942C48.7386 49.4983 48.7297 49.5023 48.7207 49.5063C48.6645 49.5311 48.6061 49.5534 48.5454 49.5732C48.5386 49.5754 48.5317 49.5775 48.5249 49.5797C48.5196 49.5797 48.517 49.5823 48.517 49.5876C48.517 49.5982 48.5196 49.6035 48.5249 49.6035C48.5281 49.6056 48.5312 49.6078 48.5344 49.61C48.5837 49.6443 48.6321 49.686 48.6796 49.7352C48.6859 49.7417 48.6921 49.7484 48.6984 49.7551C48.8597 49.9297 49.0109 50.1914 49.1519 50.54ZM48.9117 49.6613C49.0801 49.8621 49.2268 50.1327 49.3579 50.4567L49.3586 50.4584L49.3586 50.4584L49.8657 51.742C49.9369 51.9133 49.9163 52.0885 49.8096 52.2396C49.7065 52.3857 49.5555 52.4686 49.3741 52.4686C49.1941 52.4686 49.0266 52.4193 48.8778 52.3201L48.8719 52.3162L48.8719 52.3161C48.7255 52.2115 48.6187 52.0731 48.5554 51.9051L48.0559 50.6206C47.9485 50.3444 47.8472 50.2243 47.7789 50.1849L47.7745 50.1823L47.7702 50.1796C47.7404 50.1605 47.6777 50.1353 47.5638 50.1164C47.453 50.0979 47.3087 50.0876 47.1281 50.0876H46.8741V51.8099C46.8741 51.9894 46.8091 52.1494 46.682 52.2765C46.5549 52.4036 46.3949 52.4686 46.2154 52.4686C46.0358 52.4686 45.8758 52.4036 45.7487 52.2765C45.6216 52.1494 45.5566 51.9894 45.5566 51.8099V46.9448C45.5566 46.7613 45.6168 46.5952 45.7378 46.4581C45.8602 46.3139 46.0218 46.2315 46.2102 46.2156C46.608 46.1727 46.9934 46.1511 47.3662 46.1511C48.1491 46.1511 48.7781 46.2941 49.2189 46.6142C49.6656 46.9384 49.89 47.3957 49.89 47.9606C49.89 48.4025 49.7759 48.7935 49.5386 49.1222C49.3733 49.3527 49.163 49.5322 48.9117 49.6613ZM53.2739 47.5447L53.2739 47.5447C53.0862 47.3896 52.7858 47.294 52.3361 47.294C52.1361 47.294 51.9457 47.3042 51.7647 47.3244V49.1608C51.9777 49.1863 52.168 49.1987 52.3361 49.1987C52.7725 49.1987 53.0721 49.1043 53.2667 48.9475C53.4545 48.7911 53.5583 48.5658 53.5583 48.2384C53.5583 47.9085 53.4556 47.6908 53.2762 47.5465L53.2739 47.5447ZM53.4075 49.1194C53.1588 49.3204 52.8017 49.421 52.3361 49.421C52.1245 49.421 51.8837 49.4024 51.6139 49.3654C51.5663 49.3548 51.5424 49.3284 51.5424 49.286V47.1987C51.5424 47.1564 51.5663 47.13 51.6139 47.1194C51.8414 47.0876 52.0821 47.0718 52.3361 47.0718C52.8123 47.0718 53.1721 47.1723 53.4155 47.3733C53.6588 47.5691 53.7805 47.8575 53.7805 48.2384C53.7805 48.6194 53.6562 48.913 53.4075 49.1194ZM51.5726 52.2765C51.4455 52.4036 51.2855 52.4686 51.1059 52.4686C50.9264 52.4686 50.7664 52.4036 50.6393 52.2765C50.5122 52.1494 50.4472 51.9894 50.4472 51.8099V46.9448C50.4472 46.7634 50.5093 46.5994 50.6264 46.4604C50.7476 46.3165 50.9067 46.2314 51.0941 46.2155C51.5499 46.1726 51.9903 46.1511 52.4155 46.1511C53.1723 46.1511 53.7844 46.3122 54.2155 46.6701C54.6518 47.0269 54.8599 47.5345 54.8599 48.1591C54.8599 48.8497 54.6612 49.406 54.2285 49.7846C53.8014 50.1583 53.1837 50.3257 52.4155 50.3257C52.1756 50.3257 51.9585 50.3196 51.7647 50.3071V51.8099C51.7647 51.9894 51.6997 52.1494 51.5726 52.2765ZM51.6059 50.0718C51.8334 50.0929 52.1033 50.1035 52.4155 50.1035C53.8969 50.1035 54.6377 49.4554 54.6377 48.1591C54.6377 47.5876 54.4499 47.1485 54.0742 46.8416C53.6985 46.5294 53.1456 46.3733 52.4155 46.3733C51.9975 46.3733 51.5636 46.3945 51.1139 46.4368C50.9869 46.4474 50.8811 46.503 50.7964 46.6035C50.7118 46.704 50.6694 46.8178 50.6694 46.9448V51.8099C50.6694 51.9315 50.7118 52.0347 50.7964 52.1194C50.8811 52.204 50.9842 52.2464 51.1059 52.2464C51.2276 52.2464 51.3308 52.204 51.4155 52.1194C51.5001 52.0347 51.5424 51.9315 51.5424 51.8099V50.1352C51.5424 50.0929 51.5636 50.0718 51.6059 50.0718Z" fill="#58DA98"/>
</svg>
