<svg width="72" height="73" viewBox="0 0 72 73" fill="none" xmlns="http://www.w3.org/2000/svg">
<rect y="0.48584" width="72" height="72" rx="24" fill="white"/>
<path d="M12.5586 7.17373C12.6254 6.87817 13.0465 6.87817 13.1133 7.17373L13.4328 8.5867C13.7524 10.0005 14.7337 11.1735 16.0689 11.7378C16.252 11.8152 16.252 12.0747 16.0689 12.1521C14.7337 12.7163 13.7524 13.8894 13.4328 15.3031L13.1133 16.7161C13.0465 17.0117 12.6254 17.0117 12.5586 16.7161L12.2391 15.3031C11.9195 13.8894 10.9381 12.7163 9.60301 12.1521C9.41989 12.0747 9.41989 11.8152 9.60301 11.7378C10.9381 11.1735 11.9195 10.0005 12.2391 8.5867L12.5586 7.17373Z" fill="#58DA98"/>
<path d="M57.7226 54.7128C57.7894 54.4172 58.2106 54.4172 58.2774 54.7128L58.5968 56.1258C58.9164 57.5395 59.8978 58.7126 61.2329 59.2768C61.416 59.3542 61.416 59.6137 61.2329 59.6911C59.8978 60.2553 58.9164 61.4284 58.5968 62.8422L58.2774 64.2552C58.2106 64.5507 57.7894 64.5507 57.7226 64.2552L57.4032 62.8422C57.0836 61.4284 56.1022 60.2553 54.7671 59.6911C54.584 59.6137 54.584 59.3542 54.7671 59.2768C56.1022 58.7126 57.0836 57.5395 57.4032 56.1258L57.7226 54.7128Z" fill="#58DA98"/>
<path d="M23.0873 21.4789L20.6026 18.989C20.0262 18.4115 19.2594 18.0935 18.4435 18.0935C17.6276 18.0935 16.8609 18.4116 16.2846 18.989L14.4834 20.7941C13.2978 21.982 13.2978 23.9151 14.4834 25.1031L16.9734 27.5982C17.2169 27.8422 17.5364 27.9643 17.8559 27.9643C18.1745 27.9643 18.4932 27.8428 18.7366 27.6001C19.224 27.1137 22.5988 23.7277 23.0856 23.242C23.5728 22.7557 23.5737 21.9664 23.0873 21.4789Z" fill="#34C37A"/>
<path d="M36.351 11.8545C35.5181 11.8545 34.8428 12.5298 34.8428 13.3628V18.1892C34.8428 19.0221 35.5181 19.6974 36.351 19.6974C37.184 19.6974 37.8593 19.0221 37.8593 18.1892V13.3628C37.8593 12.5298 37.184 11.8545 36.351 11.8545Z" fill="#34C37A"/>
<path d="M40.0691 11.5544H32.6284C31.7954 11.5544 31.1201 12.2297 31.1201 13.0627C31.1201 13.8957 31.7954 14.571 32.6284 14.571H40.0691C40.9021 14.571 41.5774 13.8957 41.5774 13.0627C41.5774 12.2297 40.9021 11.5544 40.0691 11.5544Z" fill="#34C37A"/>
<circle cx="36.3151" cy="39.3207" r="22.0909" fill="#FFC670"/>
<ellipse cx="36.3505" cy="39.576" rx="17.1078" ry="17.3231" fill="#FFF1C0"/>
<path d="M36.3147 25.9453C37.1336 25.9453 37.7974 25.2826 37.7974 24.4653V22.3137C37.3086 22.2714 36.8143 22.2485 36.3147 22.2485C35.8152 22.2485 35.3208 22.2714 34.832 22.3137V24.4653C34.832 25.2826 35.4959 25.9453 36.3147 25.9453Z" fill="#34C37A"/>
<path d="M36.3147 53.1956C35.4959 53.1956 34.832 53.8582 34.832 54.6755V56.8272C35.3208 56.8694 35.8152 56.8923 36.3147 56.8923C36.8143 56.8923 37.3086 56.8694 37.7974 56.8272V54.6755C37.7974 53.8582 37.1336 53.1956 36.3147 53.1956Z" fill="#34C37A"/>
<path d="M53.316 37.8352H51.1927C50.3738 37.8352 49.71 38.4978 49.71 39.3152C49.71 40.1325 50.3738 40.7951 51.1927 40.7951H53.316C53.3581 40.3072 53.3808 39.8138 53.3808 39.3152C53.3808 38.8165 53.3581 38.3231 53.316 37.8352Z" fill="#34C37A"/>
<path d="M22.9121 39.3152C22.9121 38.4978 22.2482 37.8352 21.4294 37.8352H19.3061C19.2639 38.3231 19.2412 38.8165 19.2412 39.3152C19.2412 39.8138 19.2639 40.3072 19.3061 40.7951H21.4294C22.2482 40.7951 22.9121 40.1325 22.9121 39.3152Z" fill="#34C37A"/>
<path d="M39.9635 38.4641H37.8717V32.4785C37.8717 31.6612 37.2078 30.9985 36.389 30.9985C35.5701 30.9985 34.9062 31.6612 34.9062 32.4785V39.944C34.9062 40.7614 35.5701 41.424 36.389 41.424H39.9635C40.7823 41.424 41.4462 40.7614 41.4462 39.944C41.4462 39.1267 40.7823 38.4641 39.9635 38.4641Z" fill="#34C37A"/>
</svg>
