<svg width="72" height="73" viewBox="0 0 72 73" fill="none" xmlns="http://www.w3.org/2000/svg">
<rect y="0.48584" width="72" height="72" rx="24" fill="white"/>
<path d="M10.776 56.4681C10.8295 56.2315 11.1666 56.2315 11.2201 56.4681L11.3961 57.2464C11.6092 58.1892 12.2637 58.9715 13.154 59.3478C13.2762 59.3994 13.2762 59.5725 13.154 59.6241C12.2637 60.0003 11.6092 60.7827 11.3961 61.7255L11.2201 62.5037C11.1666 62.7404 10.8295 62.7404 10.776 62.5037L10.6 61.7255C10.3869 60.7827 9.73242 60.0003 8.84205 59.6241C8.71993 59.5725 8.71993 59.3994 8.84205 59.3478C9.73242 58.9715 10.3869 58.1892 10.6 57.2464L10.776 56.4681Z" fill="#7FE9B3"/>
<path d="M60.7779 8.46813C60.8314 8.2315 61.1686 8.23151 61.2221 8.46813L61.398 9.24637C61.6112 10.1892 62.2656 10.9715 63.156 11.3478C63.2781 11.3994 63.2781 11.5725 63.156 11.6241C62.2656 12.0003 61.6112 12.7827 61.398 13.7255L61.2221 14.5037C61.1686 14.7404 60.8314 14.7404 60.7779 14.5037L60.602 13.7255C60.3888 12.7827 59.7344 12.0003 58.844 11.6241C58.7219 11.5725 58.7219 11.3994 58.844 11.3478C59.7344 10.9715 60.3888 10.1892 60.602 9.24637L60.7779 8.46813Z" fill="#7FE9B3"/>
<rect width="28.4789" height="21.3592" rx="2.37324" transform="matrix(-1 0 0 1 43.4785 34.6194)" fill="#7FE9B3"/>
<path d="M31.6128 34.8477H26.8663V41.9674C26.8663 43.2781 27.9288 44.3406 29.2396 44.3406C30.5503 44.3406 31.6128 43.2781 31.6128 41.9674V34.8477Z" fill="#34C37A"/>
<rect width="28.4789" height="21.3592" rx="2.37324" transform="matrix(-1 0 0 1 47.207 13.4858)" fill="#34C37A"/>
<path d="M35.3413 13.4858H30.5948V20.6056C30.5948 21.9163 31.6574 22.9788 32.9681 22.9788C34.2788 22.9788 35.3413 21.9163 35.3413 20.6056V13.4858Z" fill="#7FE9B3"/>
<path d="M40.41 41.2053L36.1338 48.6178L41.1247 48.3529L43.3922 52.8077L47.348 45.9498C44.5137 45.2166 42.0798 43.5098 40.41 41.2053Z" fill="#28A766"/>
<path d="M60.569 41.1665C58.9115 43.4771 56.4776 45.1901 53.6494 45.9356L57.6175 52.8059L59.885 48.351L64.876 48.616L60.569 41.1665Z" fill="#34C37A"/>
<circle cx="49.7963" cy="34.0067" r="13.0653" fill="#FFC670"/>
<ellipse cx="49.9062" cy="34.0033" rx="10.1181" ry="10.2455" fill="#FFF1C0"/>
<path d="M56.1741 33.0119C56.4556 32.7366 56.2992 32.2549 55.9113 32.1986L52.3015 31.673C52.1451 31.648 52.0137 31.5542 51.9449 31.4103L50.3308 28.1383C50.1556 27.7817 49.6489 27.7817 49.4737 28.1383L47.8659 31.4103C47.797 31.5479 47.6594 31.648 47.5093 31.673L43.8994 32.1986C43.5116 32.2549 43.3552 32.7366 43.6367 33.0119L46.2455 35.5581C46.3581 35.6707 46.4082 35.8271 46.3831 35.9773L45.77 39.5683C45.7012 39.9562 46.1141 40.2565 46.4645 40.0688L49.6927 38.3734C49.8303 38.2983 49.9992 38.2983 50.1368 38.3734L53.365 40.0688C53.7154 40.2503 54.122 39.9562 54.0595 39.5683L53.4401 35.9773C53.4151 35.8209 53.4651 35.6645 53.5777 35.5581L56.1741 33.0119Z" fill="#58DA98"/>
</svg>
