<svg width="118" height="118" viewBox="0 0 118 118" fill="none" xmlns="http://www.w3.org/2000/svg">
<rect width="118" height="118" rx="24" fill="white"/>
<path d="M80.3041 14.0664C83.7262 14.0664 86.5015 16.8417 86.5015 20.2638V97.7314C86.5015 101.154 83.7262 103.929 80.3041 103.929H37.6969C34.2748 103.929 31.4995 101.154 31.4995 97.7314V20.2638C31.4995 16.8417 34.2748 14.0664 37.6969 14.0664H80.3041Z" fill="#E5FFF0"/>
<path d="M81.1796 14.0718C84.7426 14.0718 87.632 16.8471 87.632 20.2692V97.7368C87.632 101.159 84.7426 103.934 81.1796 103.934H36.8196C33.2566 103.934 30.3672 101.159 30.3672 97.7368V20.2692C30.3672 16.8471 33.2566 14.0718 36.8196 14.0718H81.1796Z" fill="#FFC670"/>
<mask id="mask0" mask-type="alpha" maskUnits="userSpaceOnUse" x="30" y="14" width="58" height="90">
<path d="M81.1806 14.0698C84.7436 14.0698 87.6331 16.8451 87.6331 20.2672V97.7348C87.6331 101.157 84.7436 103.932 81.1806 103.932H36.8197C33.2567 103.932 30.3672 101.157 30.3672 97.7348V20.2672C30.3672 16.8451 33.2567 14.0698 36.8197 14.0698H81.1806Z" fill="#FFC670"/>
</mask>
<g mask="url(#mask0)">
<rect x="109.754" y="15.5905" width="5.69841" height="124.562" transform="rotate(52.4556 109.754 15.5905)" fill="#FFDDAB"/>
<rect x="106.62" y="12.3177" width="1.98949" height="104.328" transform="rotate(52.4556 106.62 12.3177)" fill="#FFDDAB"/>
</g>
<path d="M79.7222 15.1285C82.9479 15.1285 85.5638 17.7945 85.5638 21.0819V95.4984C85.5638 98.7857 82.9479 101.452 79.7222 101.452H39.5609C36.3352 101.452 33.7192 98.7857 33.7192 95.4984V21.0819C33.7192 17.7945 36.3352 15.1285 39.5609 15.1285H79.7222Z" fill="#E8AB4F"/>
<path d="M79.1652 15.814C82.2743 15.814 84.7958 18.4117 84.7958 21.6149V94.127C84.7958 97.3302 82.2743 99.9279 79.1652 99.9279H40.4552C37.3461 99.9279 34.8247 97.3302 34.8247 94.127V21.6149C34.8247 18.4117 37.3461 15.814 40.4552 15.814H79.1652Z" fill="#E5FFF0"/>
<mask id="mask1" mask-type="alpha" maskUnits="userSpaceOnUse" x="34" y="15" width="51" height="85">
<path d="M79.1657 15.8131C82.2748 15.8131 84.7962 18.4109 84.7962 21.6141V94.1261C84.7962 97.3293 82.2748 99.9271 79.1657 99.9271H40.4557C37.3466 99.9271 34.8252 97.3293 34.8252 94.1261V21.6141C34.8252 18.4109 37.3466 15.8131 40.4557 15.8131H79.1657Z" fill="#E5FFF0"/>
</mask>
<g mask="url(#mask1)">
<rect x="109.755" y="15.5907" width="5.69841" height="124.562" transform="rotate(52.4556 109.755 15.5907)" fill="#FBFBFB"/>
<rect x="106.621" y="12.318" width="1.98949" height="104.328" transform="rotate(52.4556 106.621 12.318)" fill="#FBFBFB"/>
</g>
<path d="M68.664 47.3245C70.1475 47.3245 71.3909 48.4419 71.5516 49.9158L73.6239 68.9495C73.8118 70.6674 72.4658 72.1683 70.7363 72.1683H47.1009C45.3715 72.1683 44.0255 70.6674 44.2133 68.9495L46.2856 49.9158C46.4463 48.4419 47.6897 47.3245 49.1732 47.3245H68.664Z" fill="#098948"/>
<path d="M68.8415 47.3245C70.2719 47.3245 71.4708 48.4106 71.6258 49.8431L73.6239 68.3433C73.8051 70.013 72.5072 71.4719 70.8396 71.4719H48.0497C46.3821 71.4719 45.0843 70.013 45.2654 68.3433L47.2636 49.8431C47.4186 48.4106 48.6174 47.3245 50.0479 47.3245H68.8415Z" fill="#14BA65"/>
<path d="M86.5015 90.3099V97.7022C86.5015 101.14 83.7262 103.927 80.3041 103.927H37.6969C34.2748 103.927 31.4995 101.14 31.4995 97.7022V90.3099H86.5015Z" fill="#FFC670"/>
<path d="M86.5012 90.3099V97.4893C86.5012 100.828 83.8383 103.535 80.5547 103.535H39.6726C36.389 103.535 33.7261 100.828 33.7261 97.4893V90.3099H86.5012Z" fill="#E8AB4F"/>
<path d="M86.5016 90.3099V97.4893C86.5016 100.828 83.8387 103.535 80.5551 103.535H39.6726C36.389 103.535 33.7261 100.828 33.7261 97.4893V90.3099H86.5016Z" fill="#FFC670"/>
<mask id="mask2" mask-type="alpha" maskUnits="userSpaceOnUse" x="50" y="31" width="18" height="22">
<rect x="50.7456" y="31.4012" width="16.3408" height="21.2431" fill="#C4C4C4"/>
</mask>
<g mask="url(#mask2)">
<path fill-rule="evenodd" clip-rule="evenodd" d="M64.217 52.644V43.5658C64.217 40.6377 61.8433 38.2641 58.9153 38.2641C55.9872 38.2641 53.6136 40.6377 53.6136 43.5658V52.644C53.6136 55.572 55.9872 57.9457 58.9153 57.9457C61.8433 57.9457 64.217 55.5721 64.217 52.644ZM58.9153 35.9401C54.7037 35.9401 51.2896 39.3542 51.2896 43.5658V52.644C51.2896 56.8556 54.7037 60.2697 58.9153 60.2697C63.1268 60.2697 66.541 56.8556 66.541 52.644V43.5658C66.541 39.3542 63.1268 35.9401 58.9153 35.9401Z" fill="#098948"/>
</g>
<rect x="50.7139" y="94.2136" width="19.7542" height="5.81007" rx="2.90503" fill="white"/>
<path d="M97.7307 9.19723C97.8233 8.78744 98.4072 8.78744 98.4998 9.19723L98.9427 11.1563C99.3858 13.1164 100.746 14.7429 102.598 15.5251C102.851 15.6324 102.851 15.9922 102.598 16.0995C100.746 16.8818 99.3858 18.5082 98.9427 20.4684L98.4998 22.4274C98.4072 22.8372 97.8233 22.8372 97.7307 22.4274L97.2878 20.4684C96.8446 18.5083 95.484 16.8818 93.6329 16.0995C93.379 15.9922 93.379 15.6324 93.6329 15.5251C95.484 14.7429 96.8446 13.1164 97.2878 11.1563L97.7307 9.19723Z" fill="#58DA98"/>
<path d="M17.5571 97.3382C17.6351 96.9932 18.1266 96.9932 18.2046 97.3382L18.5774 98.9872C18.9504 100.637 20.0957 102.006 21.6538 102.665C21.8675 102.755 21.8675 103.058 21.6538 103.148C20.0957 103.807 18.9504 105.176 18.5774 106.826L18.2046 108.475C18.1266 108.819 17.6351 108.819 17.5571 108.475L17.1843 106.826C16.8113 105.176 15.666 103.807 14.1079 103.148C13.8942 103.058 13.8942 102.755 14.1079 102.665C15.666 102.006 16.8113 100.637 17.1843 98.9872L17.5571 97.3382Z" fill="#58DA98"/>
</svg>
