<svg width="72" height="73" viewBox="0 0 72 73" fill="none" xmlns="http://www.w3.org/2000/svg">
<rect y="0.48584" width="72" height="72" rx="24" fill="white"/>
<path d="M58.6933 55.9589C58.7601 55.6633 59.1813 55.6633 59.2481 55.9589L59.5675 57.3719C59.8871 58.7856 60.8685 59.9587 62.2036 60.5229C62.3867 60.6003 62.3867 60.8598 62.2036 60.9372C60.8685 61.5014 59.8871 62.6745 59.5675 64.0883L59.2481 65.5012C59.1813 65.7968 58.7601 65.7968 58.6933 65.5012L58.3739 64.0883C58.0543 62.6745 57.0729 61.5014 55.7378 60.9372C55.5547 60.8598 55.5547 60.6003 55.7378 60.5229C57.0729 59.9587 58.0543 58.7856 58.3739 57.3719L58.6933 55.9589Z" fill="#7FE9B3"/>
<path d="M10.7597 8.75576C10.8265 8.4602 11.2477 8.4602 11.3145 8.75576L11.6339 10.1687C11.9535 11.5825 12.9349 12.7556 14.27 13.3198C14.4532 13.3972 14.4532 13.6567 14.27 13.7341C12.9349 14.2983 11.9535 15.4714 11.6339 16.8852L11.3145 18.2981C11.2477 18.5937 10.8265 18.5937 10.7597 18.2981L10.4403 16.8852C10.1207 15.4714 9.13931 14.2983 7.80419 13.7341C7.62106 13.6567 7.62106 13.3972 7.80419 13.3198C9.13931 12.7556 10.1207 11.5825 10.4403 10.1687L10.7597 8.75576Z" fill="#7FE9B3"/>
<path d="M56.3126 30.1545V56.0291C56.3126 57.7717 54.8994 59.1848 53.1569 59.1848H18.4445C16.7019 59.1848 15.2888 57.7717 15.2888 56.0291C15.2888 31.568 15.2867 36.1502 15.2957 30.1545H56.3126Z" fill="#FFC670"/>
<path d="M52.2359 33.3467V53.5275C52.2359 54.8866 51.1037 55.9888 49.7076 55.9888H21.8957C20.4996 55.9888 19.3674 54.8866 19.3674 53.5275C19.3674 34.4491 19.3657 38.023 19.3729 33.3467H52.2359Z" fill="#FFF1C0"/>
<path d="M43.9868 45.0866V55.4122V56.3762V59.1885H28.0107V56.3762V55.4122L28.0111 45.0866C28.0111 43.3441 29.4243 41.9309 31.1668 41.9309H40.8311C42.5736 41.9309 43.9868 43.3441 43.9868 45.0866Z" fill="white"/>
<path d="M58.8783 30.5137C58.8783 33.671 56.3179 36.2334 53.1586 36.2334C49.9999 36.2334 47.4389 33.6723 47.4389 30.5137C47.4389 33.6723 44.8779 36.2334 41.7193 36.2334C38.5606 36.2334 35.9996 33.6723 35.9996 30.5137C35.9996 33.6723 33.4386 36.2334 30.2799 36.2334C27.1213 36.2334 24.5602 33.6723 24.5602 30.5137C24.5553 33.6516 21.9726 36.2334 18.8406 36.2334C15.7124 36.2334 13.1258 33.6549 13.1209 30.5137C13.1209 25.5427 13.1073 25.8486 13.1554 25.6204C13.2028 25.3965 12.8747 26.1894 17.8367 14.7373C18.0872 14.1604 18.6562 13.7866 19.2844 13.7866H52.7148C53.343 13.7866 53.912 14.1604 54.1625 14.7373C59.1281 26.1979 58.7963 25.3963 58.8437 25.6204C58.8918 25.8481 58.8783 25.5373 58.8783 30.5137Z" fill="#7FE9B3"/>
<path d="M58.8775 30.5144C58.8775 33.6717 56.3171 36.234 53.1578 36.234C49.9992 36.234 47.4381 33.673 47.4381 30.5144C47.4381 33.673 44.8771 36.234 41.7185 36.234C38.5598 36.234 35.9988 33.673 35.9988 30.5144C35.9988 33.673 33.4378 36.234 30.2791 36.234C27.1205 36.234 24.5595 33.673 24.5595 30.5144C24.5545 33.6523 21.9718 36.234 18.8398 36.234C15.7116 36.234 13.125 33.6555 13.1201 30.5144V25.9485C13.1201 25.838 13.132 25.7286 13.1546 25.6211H58.8429C58.891 25.8488 58.8775 25.538 58.8775 30.5144Z" fill="#34C37A"/>
</svg>
