<svg width="118" height="118" viewBox="0 0 118 118" fill="none" xmlns="http://www.w3.org/2000/svg">
<rect width="118" height="118" rx="24" fill="white"/>
<path d="M89.5243 39.8622V83.9055C89.5243 86.8716 87.1188 89.277 84.1527 89.277H25.0657C22.0996 89.277 19.6942 86.8716 19.6942 83.9055C19.6942 42.2681 19.6907 50.0679 19.7059 39.8622H89.5243Z" fill="#FFC670"/>
<mask id="mask0" mask-type="alpha" maskUnits="userSpaceOnUse" x="19" y="39" width="71" height="51">
<path d="M89.5238 39.8612V83.9045C89.5238 86.8706 87.1183 89.276 84.1522 89.276H25.0653C22.0992 89.276 19.6937 86.8706 19.6937 83.9045C19.6937 42.2672 19.6902 50.067 19.7055 39.8612H89.5238Z" fill="#34C37A"/>
</mask>
<g mask="url(#mask0)">
<rect x="104.069" y="52.1127" width="4.90391" height="107.195" transform="rotate(71.7816 104.069 52.1127)" fill="#FFDDAB"/>
<rect x="102.455" y="48.5601" width="1.71211" height="89.7825" transform="rotate(71.7816 102.455 48.5601)" fill="#FFDDAB"/>
</g>
<path d="M83.8377 44.5121V80.2229C83.8377 82.6279 81.8477 84.5782 79.3939 84.5782H30.512C28.0582 84.5782 26.0682 82.6279 26.0682 80.2229C26.0682 46.4629 26.0652 52.787 26.0779 44.5121H83.8377Z" fill="#E8AB4F"/>
<path d="M83.8343 44.5121V78.8636C83.8343 81.177 81.9071 83.0531 79.5306 83.0531H32.1897C29.8133 83.0531 27.886 81.177 27.886 78.8636C27.886 46.3886 27.8832 52.4721 27.8954 44.5121H83.8343Z" fill="#FFF1C0"/>
<path d="M68.5408 65.2802V82.8563L69.5482 84.4972V89.2843H42.3548V84.4972L41.3467 82.8563L41.3474 65.2802C41.3474 62.3141 43.7528 59.9087 46.7189 59.9087H63.1692C66.1353 59.9087 68.5408 62.3141 68.5408 65.2802Z" fill="white"/>
<path d="M93.8914 40.4725C93.8914 45.8469 89.5332 50.2085 84.1554 50.2085C78.7789 50.2085 74.4195 45.8491 74.4195 40.4725C74.4195 45.8491 70.0602 50.2085 64.6836 50.2085C59.307 50.2085 54.9477 45.8491 54.9477 40.4725C54.9477 45.8491 50.5883 50.2085 45.2118 50.2085C39.8352 50.2085 35.4758 45.8491 35.4758 40.4725C35.4674 45.8139 31.0712 50.2085 25.7399 50.2085C20.4152 50.2085 16.0124 45.8194 16.004 40.4725C16.004 32.011 15.9808 32.5317 16.0628 32.1433C16.1433 31.7621 15.5849 33.1118 24.0311 13.6182C24.4575 12.6362 25.426 12 26.4953 12H83.4001C84.4694 12 85.4379 12.6362 85.8643 13.6182C94.3167 33.1263 93.7519 31.7617 93.8326 32.1433C93.9144 32.5309 93.8914 32.0018 93.8914 40.4725Z" fill="#7FE9B3"/>
<path d="M93.8874 40.4749C93.8874 45.8493 89.5292 50.2108 84.1515 50.2108C78.7749 50.2108 74.4155 45.8514 74.4155 40.4749C74.4155 45.8514 70.0562 50.2108 64.6796 50.2108C59.303 50.2108 54.9437 45.8514 54.9437 40.4749C54.9437 45.8514 50.5843 50.2108 45.2078 50.2108C39.8312 50.2108 35.4718 45.8514 35.4718 40.4749C35.4635 45.8162 31.0672 50.2108 25.7359 50.2108C20.4112 50.2108 16.0084 45.8217 16 40.4749V32.7029C16 32.5149 16.0201 32.3286 16.0588 32.1456H93.8286C93.9104 32.5332 93.8874 32.0041 93.8874 40.4749Z" fill="#14BA65"/>
<path d="M65.3397 89.385L59.1562 100.104L66.3732 99.7205L69.6521 106.162L70.5247 105.594L75.3722 96.2456C71.2737 95.1853 67.7543 92.7173 65.3397 89.385Z" fill="#28A766"/>
<path d="M94.4921 89.332C92.0954 92.6732 88.576 95.1502 84.4863 96.2283L90.2243 106.163L91.0947 105.595L93.5031 99.7209L100.72 100.104L101.581 99.5466L94.4921 89.332Z" fill="#28A766"/>
<path d="M66.2108 88.842L60.0273 99.5606L67.2443 99.1775L70.5232 105.619L76.2433 95.7026C72.1448 94.6424 68.6254 92.1743 66.2108 88.842Z" fill="#28A766"/>
<path d="M95.3632 88.7891C92.9665 92.1303 89.4471 94.6072 85.3574 95.6853L91.0954 105.62L94.3742 99.178L101.591 99.5611L95.3632 88.7891Z" fill="#34C37A"/>
<circle cx="79.7833" cy="78.4357" r="18.8927" fill="#58DA98"/>
<mask id="mask1" mask-type="alpha" maskUnits="userSpaceOnUse" x="60" y="59" width="39" height="39">
<circle cx="79.7833" cy="78.4357" r="18.8927" fill="#FFC670"/>
</mask>
<g mask="url(#mask1)">
<rect x="90.8428" y="59.542" width="4.16314" height="45.1873" transform="rotate(35.422 90.8428 59.542)" fill="#8CF9C1"/>
<rect x="94.439" y="63.2527" width="1.45348" height="45.1873" transform="rotate(35.422 94.439 63.2527)" fill="#8CF9C1"/>
</g>
<circle cx="79.7819" cy="78.4381" r="15.4577" fill="#34C37A"/>
<ellipse cx="79.9396" cy="78.4323" rx="14.631" ry="14.8151" fill="#ADF3CB"/>
<path d="M75.6087 70.7205C75.3021 70.7205 75.0354 70.6071 74.8088 70.3805C74.5821 70.1538 74.4688 69.8871 74.4688 69.5805V69.1205C74.4688 68.8138 74.5821 68.5471 74.8088 68.3205C75.0354 68.0938 75.3021 67.9805 75.6087 67.9805H83.0688C83.3754 67.9805 83.6421 68.0938 83.8688 68.3205C84.0954 68.5471 84.2088 68.8138 84.2088 69.1205V69.5805C84.2088 70.3405 83.9154 70.9605 83.3288 71.4405L80.3088 73.9405V73.9605C80.3088 73.9738 80.3154 73.9805 80.3288 73.9805H80.5688C81.7288 73.9805 82.6554 74.3405 83.3488 75.0605C84.0554 75.7805 84.4088 76.7538 84.4088 77.9805C84.4088 79.5271 83.9354 80.7138 82.9888 81.5405C82.0421 82.3671 80.6821 82.7805 78.9088 82.7805C77.8421 82.7805 76.7621 82.6538 75.6688 82.4005C75.3488 82.3205 75.0821 82.1471 74.8688 81.8805C74.6688 81.6005 74.5688 81.2871 74.5688 80.9405V80.2605C74.5688 79.9938 74.6754 79.7871 74.8888 79.6405C75.1154 79.4805 75.3621 79.4405 75.6288 79.5205C76.7754 79.8938 77.7754 80.0805 78.6288 80.0805C79.4021 80.0805 80.0021 79.9005 80.4288 79.5405C80.8554 79.1805 81.0688 78.6805 81.0688 78.0405C81.0688 77.3871 80.8221 76.9271 80.3288 76.6605C79.8354 76.3938 78.9154 76.2538 77.5687 76.2405C77.2621 76.2405 76.9954 76.1338 76.7688 75.9205C76.5421 75.6938 76.4288 75.4271 76.4288 75.1205V75.0805C76.4288 74.3338 76.7154 73.7138 77.2888 73.2205L80.1288 70.7605V70.7405C80.1288 70.7271 80.1221 70.7205 80.1088 70.7205H75.6087Z" fill="#F09F3F"/>
<path d="M75.9798 70.2361C75.6732 70.2361 75.4065 70.1228 75.1798 69.8961C74.9532 69.6694 74.8398 69.4028 74.8398 69.0961V68.6361C74.8398 68.3294 74.9532 68.0628 75.1798 67.8361C75.4065 67.6094 75.6732 67.4961 75.9798 67.4961H83.4398C83.7465 67.4961 84.0132 67.6094 84.2398 67.8361C84.4665 68.0628 84.5798 68.3294 84.5798 68.6361V69.0961C84.5798 69.8561 84.2865 70.4761 83.6998 70.9561L80.6798 73.4561V73.4761C80.6798 73.4894 80.6865 73.4961 80.6998 73.4961H80.9398C82.0998 73.4961 83.0265 73.8561 83.7198 74.5761C84.4265 75.2961 84.7798 76.2694 84.7798 77.4961C84.7798 79.0428 84.3065 80.2294 83.3598 81.0561C82.4132 81.8828 81.0532 82.2961 79.2798 82.2961C78.2132 82.2961 77.1332 82.1694 76.0398 81.9161C75.7198 81.8361 75.4532 81.6628 75.2398 81.3961C75.0398 81.1161 74.9398 80.8028 74.9398 80.4561V79.7761C74.9398 79.5094 75.0465 79.3028 75.2598 79.1561C75.4865 78.9961 75.7332 78.9561 75.9998 79.0361C77.1465 79.4094 78.1465 79.5961 78.9998 79.5961C79.7732 79.5961 80.3732 79.4161 80.7998 79.0561C81.2265 78.6961 81.4398 78.1961 81.4398 77.5561C81.4398 76.9028 81.1932 76.4428 80.6998 76.1761C80.2065 75.9094 79.2865 75.7694 77.9398 75.7561C77.6332 75.7561 77.3665 75.6494 77.1398 75.4361C76.9132 75.2094 76.7998 74.9428 76.7998 74.6361V74.5961C76.7998 73.8494 77.0865 73.2294 77.6598 72.7361L80.4998 70.2761V70.2561C80.4998 70.2428 80.4932 70.2361 80.4798 70.2361H75.9798Z" fill="#FFC670"/>
<path d="M74.2492 86.4258C74.1528 86.4258 74.0689 86.3901 73.9976 86.3188C73.9263 86.2475 73.8906 86.1636 73.8906 86.0672V85.8973C73.8906 85.8008 73.9263 85.7169 73.9976 85.6456C74.0689 85.5743 74.1528 85.5387 74.2492 85.5387H77.0553C77.1517 85.5387 77.2356 85.5743 77.3069 85.6456C77.3782 85.7169 77.4139 85.8008 77.4139 85.8973V86.0672C77.4139 86.1636 77.3782 86.2475 77.3069 86.3188C77.2356 86.3901 77.1517 86.4258 77.0553 86.4258H76.25C76.2164 86.4258 76.1996 86.4426 76.1996 86.4761V89.7729C76.1996 89.8693 76.164 89.9532 76.0927 90.0245C76.0214 90.0958 75.9375 90.1315 75.841 90.1315H75.4635C75.367 90.1315 75.2832 90.0958 75.2118 90.0245C75.1405 89.9532 75.1049 89.8693 75.1049 89.7729V86.4761C75.1049 86.4426 75.0881 86.4258 75.0546 86.4258H74.2492Z" fill="#F09F3F"/>
<path d="M78.5408 90.1315C78.4443 90.1315 78.3604 90.0958 78.2891 90.0245C78.2178 89.9532 78.1821 89.8693 78.1821 89.7729V85.7715C78.1821 85.675 78.2178 85.5911 78.2891 85.5198C78.3604 85.4485 78.4443 85.4128 78.5408 85.4128H78.8427C78.9392 85.4128 79.0231 85.4485 79.0944 85.5198C79.1657 85.5911 79.2014 85.675 79.2014 85.7715V87.1996C79.2014 87.2038 79.2035 87.2059 79.2077 87.2059C79.2119 87.2059 79.216 87.2038 79.2202 87.1996C79.5138 86.9312 79.8284 86.797 80.164 86.797C80.5499 86.797 80.8267 86.9081 80.9945 87.1304C81.1622 87.3485 81.2461 87.7407 81.2461 88.3069V89.7729C81.2461 89.8693 81.2105 89.9532 81.1392 90.0245C81.0679 90.0958 80.984 90.1315 80.8875 90.1315H80.6107C80.5142 90.1315 80.4303 90.0958 80.359 90.0245C80.2877 89.9532 80.2521 89.8693 80.2521 89.7729V88.4328C80.2521 88.0972 80.2185 87.8749 80.1514 87.7659C80.0885 87.6568 79.9668 87.6023 79.7865 87.6023C79.6439 87.6023 79.5097 87.6652 79.3838 87.791C79.2622 87.9127 79.2014 88.0427 79.2014 88.1811V89.7729C79.2014 89.8693 79.1657 89.9532 79.0944 90.0245C79.0231 90.0958 78.9392 90.1315 78.8427 90.1315H78.5408Z" fill="#F09F3F"/>
<path d="M82.3984 90.1315C82.3019 90.1315 82.218 90.0958 82.1467 90.0245C82.0796 89.9532 82.046 89.8693 82.046 89.7729V87.2185C82.046 87.122 82.0796 87.0382 82.1467 86.9669C82.218 86.8955 82.3019 86.8599 82.3984 86.8599H82.6563C82.757 86.8599 82.8409 86.8955 82.908 86.9669C82.9793 87.034 83.017 87.1178 83.0212 87.2185L83.0275 87.2688C83.0275 87.273 83.0296 87.2751 83.0338 87.2751L83.0464 87.2626C83.319 86.9522 83.6462 86.797 84.0279 86.797C84.4095 86.797 84.6843 86.906 84.852 87.1241C85.0198 87.3381 85.1037 87.7051 85.1037 88.2252V89.7729C85.1037 89.8693 85.0681 89.9532 84.9968 90.0245C84.9296 90.0958 84.8479 90.1315 84.7514 90.1315H84.4746C84.3781 90.1315 84.2942 90.0958 84.2229 90.0245C84.1516 89.9532 84.1159 89.8693 84.1159 89.7729V88.2566C84.1159 88.005 84.0824 87.833 84.0153 87.7407C83.9482 87.6442 83.8265 87.596 83.6504 87.596C83.5036 87.596 83.3672 87.6568 83.2414 87.7785C83.1198 87.8959 83.059 88.0238 83.059 88.1622V89.7729C83.059 89.8693 83.0233 89.9532 82.952 90.0245C82.8849 90.0958 82.8031 90.1315 82.7066 90.1315H82.3984Z" fill="#F09F3F"/>
<path d="M74.5027 86.1457C74.4062 86.1457 74.3223 86.1101 74.251 86.0388C74.1797 85.9675 74.144 85.8836 74.144 85.7871V85.6173C74.144 85.5208 74.1797 85.4369 74.251 85.3656C74.3223 85.2943 74.4062 85.2586 74.5027 85.2586H77.3087C77.4052 85.2586 77.489 85.2943 77.5603 85.3656C77.6316 85.4369 77.6673 85.5208 77.6673 85.6173V85.7871C77.6673 85.8836 77.6316 85.9675 77.5603 86.0388C77.489 86.1101 77.4052 86.1457 77.3087 86.1457H76.5034C76.4698 86.1457 76.453 86.1625 76.453 86.1961V89.4928C76.453 89.5893 76.4174 89.6732 76.3461 89.7445C76.2748 89.8158 76.1909 89.8515 76.0944 89.8515H75.7169C75.6205 89.8515 75.5366 89.8158 75.4653 89.7445C75.394 89.6732 75.3583 89.5893 75.3583 89.4928V86.1961C75.3583 86.1625 75.3415 86.1457 75.308 86.1457H74.5027Z" fill="#FFC670"/>
<path d="M78.7942 89.8515C78.6977 89.8515 78.6138 89.8158 78.5425 89.7445C78.4712 89.6732 78.4356 89.5893 78.4356 89.4928V85.4914C78.4356 85.395 78.4712 85.3111 78.5425 85.2398C78.6138 85.1685 78.6977 85.1328 78.7942 85.1328H79.0962C79.1926 85.1328 79.2765 85.1685 79.3478 85.2398C79.4191 85.3111 79.4548 85.395 79.4548 85.4914V86.9196C79.4548 86.9238 79.4569 86.9259 79.4611 86.9259C79.4653 86.9259 79.4695 86.9238 79.4737 86.9196C79.7673 86.6512 80.0818 86.517 80.4174 86.517C80.8033 86.517 81.0801 86.6281 81.2479 86.8504C81.4156 87.0685 81.4995 87.4607 81.4995 88.0269V89.4928C81.4995 89.5893 81.4639 89.6732 81.3926 89.7445C81.3213 89.8158 81.2374 89.8515 81.1409 89.8515H80.8641C80.7676 89.8515 80.6837 89.8158 80.6124 89.7445C80.5411 89.6732 80.5055 89.5893 80.5055 89.4928V88.1527C80.5055 87.8172 80.4719 87.5949 80.4048 87.4858C80.3419 87.3768 80.2203 87.3223 80.0399 87.3223C79.8973 87.3223 79.7631 87.3852 79.6372 87.511C79.5156 87.6326 79.4548 87.7627 79.4548 87.9011V89.4928C79.4548 89.5893 79.4191 89.6732 79.3478 89.7445C79.2765 89.8158 79.1926 89.8515 79.0962 89.8515H78.7942Z" fill="#FFC670"/>
<path d="M82.6518 89.8515C82.5553 89.8515 82.4714 89.8158 82.4001 89.7445C82.333 89.6732 82.2994 89.5893 82.2994 89.4928V86.9385C82.2994 86.842 82.333 86.7581 82.4001 86.6868C82.4714 86.6155 82.5553 86.5799 82.6518 86.5799H82.9097C83.0104 86.5799 83.0943 86.6155 83.1614 86.6868C83.2327 86.7539 83.2704 86.8378 83.2746 86.9385L83.2809 86.9888C83.2809 86.993 83.283 86.9951 83.2872 86.9951L83.2998 86.9825C83.5724 86.6721 83.8996 86.517 84.2813 86.517C84.663 86.517 84.9377 86.626 85.1055 86.8441C85.2732 87.058 85.3571 87.425 85.3571 87.9451V89.4928C85.3571 89.5893 85.3215 89.6732 85.2502 89.7445C85.1831 89.8158 85.1013 89.8515 85.0048 89.8515H84.728C84.6315 89.8515 84.5476 89.8158 84.4763 89.7445C84.405 89.6732 84.3694 89.5893 84.3694 89.4928V87.9766C84.3694 87.7249 84.3358 87.553 84.2687 87.4607C84.2016 87.3642 84.0799 87.316 83.9038 87.316C83.757 87.316 83.6207 87.3768 83.4948 87.4984C83.3732 87.6159 83.3124 87.7438 83.3124 87.8822V89.4928C83.3124 89.5893 83.2767 89.6732 83.2054 89.7445C83.1383 89.8158 83.0565 89.8515 82.9601 89.8515H82.6518Z" fill="#FFC670"/>
</svg>
